<?xml version="1.0" encoding="utf-8"?>
<!-- Generator: Adobe Illustrator 16.0.2, SVG Export Plug-In . SVG Version: 6.00 Build 0)  -->
<!DOCTYPE svg PUBLIC "-//W3C//DTD SVG 1.1//EN" "http://www.w3.org/Graphics/SVG/1.1/DTD/svg11.dtd">
<svg version="1.1" id="Layer_1" xmlns="http://www.w3.org/2000/svg" xmlns:xlink="http://www.w3.org/1999/xlink" x="0px" y="0px"
	 width="67.8px" height="28px" viewBox="10.546 6.372 67.8 28" enable-background="new 10.546 6.372 67.8 28" xml:space="preserve">
<path fill="#7E7E7E" d="M35.405,30.165l3.443-19.371h5.381l-3.337,19.371H35.405z M60.37,11.01c-1.076-0.43-2.798-0.861-4.949-0.861
	c-5.383,0-9.255,2.689-9.255,6.564c0,2.905,2.692,4.413,4.843,5.382c2.15,0.966,2.797,1.615,2.797,2.477
	c0,1.291-1.722,1.933-3.228,1.933c-2.151,0-3.337-0.321-5.166-1.072l-0.753-0.325l-0.752,4.413c1.291,0.539,3.657,1.076,6.131,1.076
	c5.707,0,9.472-2.688,9.472-6.78c0-2.259-1.4-3.982-4.624-5.38c-1.94-0.969-3.125-1.507-3.125-2.476c0-0.86,0.97-1.721,3.125-1.721
	c1.826,0,3.118,0.322,4.085,0.753l0.539,0.216L60.37,11.01L60.37,11.01z M69.626,10.794c-1.291,0-2.261,0.107-2.797,1.399
	l-8.071,17.972h5.811l1.075-3.231h6.886l0.648,3.231h5.164L73.82,10.794H69.626z M67.15,23.71c0.321-0.971,2.154-5.705,2.154-5.705
	s0.431-1.184,0.752-1.937l0.321,1.829c0,0,1.079,4.843,1.291,5.918H67.15V23.71L67.15,23.71z M25.503,24.352l-0.538-2.795
	c-0.968-3.229-4.088-6.779-7.532-8.503l4.843,17.217h5.812l8.715-19.368h-5.812L25.503,24.352z M10.546,10.794l0.969,0.216
	c7.188,1.206,10.26,3.484,13.121,8.729l-1.606-7.331c-0.322-1.291-1.291-1.614-2.476-1.614H10.546z"/>
</svg>
