<?xml version="1.0" encoding="utf-8"?>
<!-- Generator: Adobe Illustrator 16.0.2, SVG Export Plug-In . SVG Version: 6.00 Build 0)  -->
<!DOCTYPE svg PUBLIC "-//W3C//DTD SVG 1.1//EN" "http://www.w3.org/Graphics/SVG/1.1/DTD/svg11.dtd">
<svg version="1.1" id="Layer_1" xmlns="http://www.w3.org/2000/svg" xmlns:xlink="http://www.w3.org/1999/xlink" x="0px" y="0px"
	 width="46.667px" height="28px" viewBox="0 4 46.667 28" enable-background="new 0 4 46.667 28" xml:space="preserve">
<path fill="#7E7E7E" d="M46.667,18c0,7.704-6.223,14-14,14c-7.705,0-14-6.296-14-14l0,0c0-7.704,6.221-14,13.926-14
	C40.446,4,46.667,10.296,46.667,18L46.667,18z"/>
<path fill="#939393" d="M32.667,4c7.703,0,14,6.296,14,14l0,0c0,7.704-6.223,14-14,14"/>
<path fill="#7E7E7E" d="M13.889,4C6.238,4.074,0,10.296,0,18s6.238,14,14.036,14c3.64,0,6.907-1.408,9.433-3.63l0,0l0,0
	c0.521-0.444,0.965-0.964,1.41-1.481h-2.896c-0.372-0.443-0.742-0.964-1.04-1.404h4.979c0.297-0.446,0.595-0.967,0.815-1.482h-6.611
	c-0.224-0.443-0.445-0.964-0.594-1.48h7.723C27.705,21.111,28,19.629,28,18.074c0-1.037-0.148-2-0.295-2.965h-8.618
	c0.074-0.52,0.223-0.962,0.37-1.479h7.725c-0.147-0.519-0.369-1.037-0.595-1.481h-6.537c0.223-0.519,0.52-0.963,0.817-1.482h4.978
	c-0.302-0.518-0.671-1.037-1.116-1.481h-2.747c0.445-0.519,0.891-0.963,1.41-1.407c-2.45-2.297-5.792-3.63-9.431-3.63
	C13.963,4,13.963,4,13.889,4z"/>
<path fill="#939393" d="M14,32c3.63,0,6.889-1.415,9.407-3.648l0,0l0,0c0.518-0.447,0.963-0.971,1.407-1.49h-2.889
	c-0.37-0.444-0.74-0.967-1.037-1.41h4.965c0.296-0.449,0.593-0.973,0.813-1.493h-6.591c-0.223-0.446-0.445-0.968-0.593-1.485h7.703
	c0.444-1.414,0.741-2.906,0.741-4.471c0-1.043-0.149-2.01-0.297-2.979h-8.592c0.074-0.521,0.222-0.966,0.37-1.488h7.704
	c-0.147-0.521-0.368-1.042-0.593-1.489H20c0.222-0.521,0.518-0.967,0.814-1.489h4.964c-0.299-0.521-0.668-1.042-1.112-1.488h-2.74
	c0.445-0.522,0.889-0.969,1.407-1.415C20.889,5.34,17.556,4,13.926,4h-0.074"/>
<g>
	<path d="M18.963,21.555l0.223-1.258c-0.074,0-0.223,0.073-0.371,0.073c-0.518,0-0.592-0.297-0.518-0.444l0.443-2.592h0.815
		l0.222-1.407h-0.74l0.148-0.891h-1.481c0,0-0.889,4.89-0.889,5.483c0,0.89,0.519,1.258,1.185,1.258
		C18.444,21.777,18.814,21.63,18.963,21.555z"/>
	<path d="M19.481,19.186c0,2.073,1.407,2.594,2.593,2.594c1.111,0,1.556-0.225,1.556-0.225l0.295-1.408c0,0-0.813,0.375-1.554,0.375
		c-1.631,0-1.335-1.188-1.335-1.188h3.038c0,0,0.223-0.963,0.223-1.333c0-0.963-0.52-2.146-2.146-2.146
		C20.592,15.703,19.481,17.334,19.481,19.186z M22.074,17.037c0.814,0,0.667,0.963,0.667,1.037h-1.63
		C21.111,18,21.26,17.037,22.074,17.037z"/>
	<path d="M31.481,21.555l0.297-1.629c0,0-0.741,0.371-1.258,0.371c-1.039,0-1.483-0.814-1.483-1.704
		c0-1.776,0.889-2.739,1.926-2.739c0.742,0,1.336,0.443,1.336,0.443l0.222-1.557c0,0-0.89-0.37-1.702-0.37
		c-1.703,0-3.408,1.481-3.408,4.296c0,1.854,0.889,3.111,2.666,3.111C30.666,21.777,31.481,21.555,31.481,21.555z"/>
	<path d="M10.814,15.703C9.778,15.703,9.037,16,9.037,16l-0.222,1.26c0,0,0.667-0.297,1.629-0.297c0.519,0,0.963,0.074,0.963,0.52
		c0,0.295-0.074,0.369-0.074,0.369s-0.444,0-0.667,0C9.407,17.852,8,18.37,8,20.073c0,1.336,0.889,1.632,1.407,1.632
		c1.037,0,1.481-0.668,1.556-0.668l-0.074,0.593h1.334l0.593-4.073C12.815,15.777,11.333,15.703,10.814,15.703z M11.11,19.037
		c0,0.221-0.147,1.408-1.037,1.408c-0.444,0-0.592-0.372-0.592-0.596c0-0.369,0.222-0.889,1.333-0.889
		C11.037,19.037,11.11,19.037,11.11,19.037z"/>
	<path d="M14.222,21.705c0.371,0,2.224,0.072,2.224-1.928c0-1.854-1.779-1.481-1.779-2.223c0-0.369,0.297-0.52,0.815-0.52
		c0.222,0,1.038,0.072,1.038,0.072l0.222-1.332c0,0-0.52-0.147-1.408-0.147c-1.111,0-2.222,0.444-2.222,1.927
		c0,1.701,1.852,1.557,1.852,2.223c0,0.443-0.519,0.52-0.889,0.52c-0.667,0-1.333-0.224-1.333-0.224l-0.223,1.336
		C12.593,21.555,12.963,21.705,14.222,21.705z"/>
	<path d="M43.777,14.52l-0.296,2c0,0-0.593-0.74-1.407-0.74c-1.332,0-2.52,1.63-2.52,3.556c0,1.188,0.595,2.444,1.854,2.444
		c0.889,0,1.407-0.594,1.407-0.594l-0.075,0.521h1.481l1.112-7.113L43.777,14.52z M43.112,18.443c0,0.813-0.372,1.854-1.187,1.854
		c-0.521,0-0.814-0.445-0.814-1.186c0-1.188,0.52-1.926,1.186-1.926C42.815,17.186,43.112,17.557,43.112,18.443z"/>
	<path d="M2.741,21.63l0.889-5.333l0.148,5.333h1.037l1.925-5.333L5.926,21.63h1.556l1.185-7.11H6.222l-1.481,4.369L4.667,14.52
		H2.519l-1.186,7.11H2.741z"/>
	<path d="M25.703,21.63c0.446-2.444,0.521-4.444,1.557-4.073c0.148-0.964,0.371-1.334,0.519-1.703c0,0-0.071,0-0.296,0
		c-0.665,0-1.186,0.89-1.186,0.89l0.149-0.813h-1.407l-0.965,5.777h1.629V21.63z"/>
	<path d="M34.889,15.703c-1.037,0-1.777,0.297-1.777,0.297l-0.222,1.26c0,0,0.666-0.297,1.627-0.297c0.52,0,0.967,0.074,0.967,0.52
		c0,0.295-0.074,0.369-0.074,0.369s-0.445,0-0.668,0c-1.259,0-2.666,0.521-2.666,2.224c0,1.336,0.889,1.632,1.407,1.632
		c1.034,0,1.481-0.668,1.554-0.668l-0.072,0.593h1.334l0.593-4.073C36.964,15.777,35.408,15.703,34.889,15.703z M35.259,19.037
		c0,0.221-0.147,1.408-1.038,1.408c-0.442,0-0.593-0.372-0.593-0.596c0-0.369,0.224-0.889,1.336-0.889
		C35.187,19.037,35.187,19.037,35.259,19.037z"/>
	<path d="M38.149,21.63c0.44-2.444,0.517-4.444,1.554-4.073c0.15-0.964,0.371-1.334,0.521-1.703c0,0-0.073,0-0.296,0
		c-0.669,0-1.187,0.89-1.187,0.89l0.146-0.813h-1.406l-0.964,5.777h1.632L38.149,21.63L38.149,21.63z"/>
</g>
</svg>
