<?xml version="1.0" encoding="utf-8"?>
<!-- Generator: Adobe Illustrator 16.0.2, SVG Export Plug-In . SVG Version: 6.00 Build 0)  -->
<!DOCTYPE svg PUBLIC "-//W3C//DTD SVG 1.1//EN" "http://www.w3.org/Graphics/SVG/1.1/DTD/svg11.dtd">
<svg version="1.1" id="Слой_1" xmlns:svg="http://www.w3.org/2000/svg"
	 xmlns="http://www.w3.org/2000/svg" xmlns:xlink="http://www.w3.org/1999/xlink" x="0px" y="0px" width="874.172px"
	 height="530.57px" viewBox="49.49 2.86 874.172 530.57" enable-background="new 49.49 2.86 874.172 530.57" xml:space="preserve">
<path fill="#F0F0F0" d="M781.68,324.4l-2.31,8.681l-12.53,4.229l-3.75-4.399l-1.82,0.5l3.4,13.118l5.09,0.57l6.79,2.569v2.57
	l3.11-0.57l4.53-6.27v-5.131l2.55-5.129l2.83,0.568l-3.4-7.129l-0.52-4.591L781.68,324.4L781.68,324.4z M852.76,348.29l-0.37,24.44
	l3.521-0.19l4.63-5.41l3.89,0.19l2.5,2.24l0.83,6.899l7.96,4.199l2.04-0.75v-2.52l-6.39-5.32l-3.15-7.279l2.5-1.211l-1.85-4.01
	l-3.7-0.09l-0.93-4.291l-9.812-6.619L852.76,348.29L852.76,348.29z M137.49,225.43l4.83,15.21l-2.25,1.26l0.25,3.02l4.25,3.27v6.05
	l5.25,5.04l-2.25-14.86l-3-9.83l0.75-6.8l2.5,0.25l1,2.27l-1,5.79l13,25.44v9.07l10.5,12.34l11.5,5.291l4.75-2.771l6.75,5.54l4-4.03
	l-1.75-4.54l5.75-1.76l1.75,1.01l1.75-1.76h2.75l5-8.82l-2.5-2.27l-9.75,2.27l-2.25,6.551l-5.75,1.01l-6.75-2.771l-3-9.57
	l2.27-12.07l-4.64-2.89l-2.21-11.59l-1.85-0.79l-3.38,3.43l-3.88-2.07l-1.52-7.73l-15.37-1.61l-7.94-5.97L137.49,225.43
	L137.49,225.43z M517.77,143.66l-5.6-0.2l-3.55,2.17l-0.05,1.61l2.3,2.17l7.15,1.21L517.77,143.66L517.77,143.66z M473.88,227.49
	l-4.08-1.37l-16.979,3.19l-3.7,2.81l2.26,11.67l-6.75,0.27l-4.06,6.53l-9.67,2.32l0.028,4.75l31.852,24.35l5.43,0.46l18.11-14.15
	l-1.812-2.28l-3.398-0.46l-2.04-3.42v-14.15l-1.36-1.37l0.23-3.65l-3.62-3.65l-0.45-3.88l1.58-1.14l-0.682-4.11L473.88,227.49
	L473.88,227.49z M448.29,232.28h-11.55l-2.26,5.02l-5.212,2.51l-4.3,11.64l-8.38,5.02l-11.77,19.39l11.55-0.23l0.45-5.699h2.938
	v-7.76h10.19l0.229-10.04l9.74-2.28l4.08-6.62l6.34-0.23L448.29,232.28L448.29,232.28z M404.9,276.661l2.18,2.85l-0.45,12.32
	l3.17-2.281l2.26-0.459l3.172,1.14l3.618,5.021l3.4-2.28l16.53-0.229l-4.08-27.611l4.38-0.02l-8.16-6.25l0.01,4.06l-10.33,0.01
	l-0.05,7.75l-2.97-0.01l-0.38,5.72L404.9,276.661L404.9,276.661z M410.12,290.32l-3.94,2.86l-0.898,1.6l-0.28,1.6l1.45,1.041
	l4.84-0.07l3.11-0.84l0.35,1.529l-0.28,2.021l2.972,1.46l0.618,0.7l3.94,0.14l0.14-1.74l-3.6-4.32l-4.01-5.43l-2.49-1.039
	L410.12,290.32L410.12,290.32z M406.89,298.34l-0.13,1.109l6.92-0.1l0.352-1.03l-0.15-1.04l-1.99,0.811L406.89,298.34L406.89,298.34
	z M406.79,300.22l1.24,3.01l0.688-1.86l8.41,0.881l-3.64-1.871L406.79,300.22L406.79,300.22z M408.6,304.53l1.4,2.77l3.93-3.379
	l0.04-1.041l-4.63-0.67L408.6,304.53L408.6,304.53z M410.42,307.94l3.04,4.68l3.96-3.439l4.062-0.18l3.38,4.49l2.87,1.889
	l1.078-2.101l0.96-0.538l-0.068-4.621l-1.91-5.479l-5.86,0.649l-7.25-0.58l-0.04,1.86L410.42,307.94L410.42,307.94z M413.93,313.129
	l5.65,5.461l4.03-4.891l-2.521-3.949l-3.47,0.35L413.93,313.129L413.93,313.129z M420.17,319.189l10.98,7.34l-0.262-5.559
	l-3.318-3.91l-3.24-2.871L420.17,319.189L420.17,319.189z M432.07,326.75l4.278-3.029l5.32-0.932l5.43,1.17l-2.77-4.189
	l-0.812-2.561l0.812-7.569l-4.851,0.229l-2.199-2.1l-4.62,0.12l-2.2,0.351l0.23,5.118l-1.16,0.472l-1.392,2.561l3.58,4.189
	L432.07,326.75L432.07,326.75z M419.46,295.84l3.08-2.11l17.12-0.101l-3.96-27.54l4.52-0.13l21.87,16.69l2.94,0.42l-1.11,9.28
	l-13.75,1.25l-10.61,7.92l-1.93,5.42l-7.37,0.311l-1.88-5.41l-5.648,0.4l0.22-1.771L419.46,295.84L419.46,295.84z M450.59,294.28
	l3.642-0.289l5.97,8.439l-5.54,4.18l-4.01-1.029l-5.392,0.069l-0.87,3.16l-4.52,0.22l-1.24-1.689l1.602-5.141L450.59,294.28
	L450.59,294.28z M460.89,302l2.552-0.061l2.3-3.449l3.858-0.691l4.11,2.511l8.771,0.25l6.779-2.761l2.55-2.189l0.19-2.88
	l4.729-4.771l1.25-10.529l-3.108-6.52l-7.96-1.94l-18.42,14.36l-2.61-0.25l-1.12,9.969l-9.398,0.941L460.89,302L460.89,302z
	 M444.34,317.049l1.12,2.631l2.92,4.58L450,324.2l4.42-2.511l-0.31-14.29l-3.42-1l-4.79,0.13L444.34,317.049L444.34,317.049z
	 M455.22,321.25l2.682-1.57l-0.062-10.35l-1.74-2.82l-1.118,0.939L455.22,321.25L455.22,321.25z M458.71,319.491h2.12l0.12-6.021
	l2.68-3.892l-0.12-6.77l-2.43-0.061l-4.17,3.26l1.74,3.32L458.71,319.491L458.71,319.491z M461.57,319.37l3.92,0.19l4.729,5.271
	l2.3,0.629l1.802-0.879l2.738-0.381l0.932-3.82l3.729-2.449l4.04-0.189l7.4-13.609l-0.12-3.07l-3.42-2.63l-6.84,3.01l-9.15-0.13
	l-4.359-2.76l-3.109,0.689l-1.62,2.82l-0.12,7.96l-2.609,3.7L461.57,319.37L461.57,319.37z M474.91,227.33l5.53-2.23l1.818,1.18
	l0.07,1.44l-0.851,1.11l0.131,1.97l0.85,0.46v3.54l-0.979,1.64l0.13,1.05l3.71,1.31l-2.99,4.65l-1.17-0.07l-0.2,3.74l-1.3,0.2
	l-1.11-0.98l0.26-3.8l-3.64-3.54l-0.46-3.08l1.76-1.38L474.91,227.33L474.91,227.33z M480.05,248.03l1.562-0.26l0.46-3.6h0.778
	l3.19-5.24l7.87,2.29l2.148,3.34l7.74,3.54l4.03-1.7l-0.392-1.7l-1.76-1.7l0.2-1.18l2.86-2.42h5.66l2.148,2.88l4.55,0.66
	l0.59,36.891l-3.38-0.131l-20.42-10.619l-2.21,1.25l-8.39-2.101l-2.28-3.01l-3.32-0.46L480,261.75L480.05,248.03L480.05,248.03z
	 M521.93,243.06l2.67,0.07l5.2,1.44l2.47,0.07l3.062-2.56h1.43l2.602,1.44h3.29l0.59-0.04l2.08,5.98l0.59,1.93l0.55,2.89L545.48,255
	l-1.69-0.85l-1.95-6.36l-1.76-0.13l-0.13,2.16l1.17,3.74l9.37,11.6l0.198,4.98l-2.729,3.149L522.32,273L521.93,243.06L521.93,243.06
	z M492.79,296l0.13-2.951l4.74-4.609l1.27-11.32l-3.16-6.039l2.212-1.131l21.398,11.15l-0.13,10.939l-3.77,3.211v5.64l2.47,4.78
	h-4.36l-7.22,7.141l-0.19,2.16l-5.33-0.07l-0.068,0.979l-3.04-0.398l-2.08-3.932l-1.562-0.77l0.2-1.199l1.96-1.5v-7.021l-2.71-0.42
	l-3.27-2.431L492.79,296L492.79,296L492.79,296z M549.084,310.34l-2.943-4.943l-0.309-3.596l-0.707,0.135l-0.191,1.107l-3.856,5.635
	l-3.078-1.469l-3.07,2.572l-6.352-0.365l-2.812-2.246l-4.032,2.063l-0.152,1.375l-1.229,0.74l12.319,12.68l6.711,0.382l0.979,1.489
	l9.602,0.17l0.078-2.149l0.82-1.49l3.201-0.41l-3.99-5.789h-2.939l-0.75-4.111l2.359-1.039L549.084,310.34z M552,270.609
	l-3.689,3.722l-25.801-0.23l0.279,6.57l-2.459-0.07l-0.18,11.83l-3.73,3.211l-0.15,4.939l2.691,5.311l2.949,1.74l-0.045,0.414
	l4.02-2.06l3.066,2.449l5.639,0.323l3.258-2.729l2.888,1.375l3.25-4.748l0.272-1.576l2.478-0.471l0.385,4.471l2.477,4.16
	l6.004-12.912v-7.85l4.361-5.141L552,270.609z M477.82,324.279l3.22,2.962l-0.23,4.579l17.66-0.409l1.44-1.621l-5.062-5.449
	l-0.75-1.971l3.222-6.029l-2.19-4l-1.84-0.99v-2.03l2.13-1.39l0.12-6.32l-1.69-0.189l-0.028,3.319l-7.42,13.851l-4.54,0.229
	l-3.11,2.14L477.82,324.279L477.82,324.279z M556.71,294.7l-0.25-5.89l3.96-4.62l1.07,0.82l1.95,6.52l9.358,6.971l-1.7,2.09
	l-6.85-5.891H556.71L556.71,294.7z M571.48,301.54l-0.57,3.36l3.96-0.06l0.06-4.94l-1.448-0.89L571.48,301.54L571.48,301.54z
	 M549.49,311.76l7.278-16.2l7.23,0.04l6.41,5.57l-0.45,4.59h4.97l0.51,2.76l8.04,4.811l4.96,0.25l-9.43,10.129l-12.95,3.99h-3.21
	l-5.72-4.88l-2.26-0.95l-4.38-6.449l-2.892,0.039l-0.34-2.959L549.49,311.76L549.49,311.76z M575.74,305.04l4.08,2.78l1.21-0.06
	l10.13-3.48l1.15,3.711l-0.812,3.129l-2.188,1.739l-5.472-0.351l-7.83-4.809L575.74,305.04L575.74,305.04z M599.62,299.65l2.13,2.38
	l2.88-1.74l1.04-0.35l-1.32-1.279l-2.528,0.75L599.62,299.65L599.62,299.65z M591.97,304.049l4.37-1.68l1.55,0.93l-0.17,3.881
	l-4.03,11.48l-21.81,23.358l-2.53-1.739l-0.17-9.859l3.28-3.771l6.96-2.149l10.21-10.779l2.67-2.381l0.75-3.48L591.97,304.049
	L591.97,304.049z M495.66,324.049l4.66,5.041l1.84-2.381l2.93,0.121l0.63-2.32l2.88-1.801l5.98,4.121l3.45-3.42l13.39,0.59
	L519,311.18l1.67-1.04l0.23-2.261l-2.82-1.33h-4.141l-6.671,6.611l-0.229,2.719l-5.29-0.17l-0.17,1.16l-3.45-0.351l-3.11,5.909
	L495.66,324.049L495.66,324.049z M470.74,337.15l1.148-0.58l0.86,0.699l-0.86,1.33l-1.04-0.41L470.74,337.15L470.74,337.15z
	 M473.05,333.5l1.73-0.291l0.58,1.102l-0.86,0.93l-0.86-0.119L473.05,333.5L473.05,333.5z M476.84,327.411l-0.46,1.969l1.38,0.75
	l1.32-0.988l-0.46-2.031L476.84,327.411L476.84,327.411z M486.39,332.629l-0.12,2.49L480.63,335l-3.45,6.67l8.11,8.869l2.01-1.681
	l-0.06-1.739l-1.38-0.64v-1.222l3.108-1.969l2.762,2.09l3.05,0.06l-0.062-10.489l-4.83-0.229l-0.06-2.201L486.39,332.629
	L486.39,332.629z M480.99,332.689l-0.062,1.392l4.54,0.229l-0.06-1.569L480.99,332.689L480.99,332.689z M491,332.52l-0.06,1.451
	l4.778,0.119l0.17,12.41l-4.37-0.121l-2.528-1.969l-1.96,1.1l-0.09,0.551l1.01,0.488l0.29,2.551l-2.7,2.32l0.58,1.221l2.99-2.32
	h1.438l0.46,1.391l1.9,0.81l6.1-5.16l-0.12-3.771l1.271-3.069l3.91-2.899l1.05-9.81l-2.78,0.011l-3.22,4.409L491,332.52L491,332.52z
	 M486.55,353.23l1.74,2.261l2.25-2.132l-0.66-2.209l-0.56-0.041L486.55,353.23L486.55,353.23z M489.38,355.709l10.312-0.181
	l2.09,2.972l-0.08,2.188l0.77,0.701h5.12l1.47-2.892h2.092l0.85,0.859l2.87-0.08l0.85,10.08l4.96,0.16v0.779l13.33,6.012l0.62,1.17
	h2.79l-0.31-4.221l-5.04-2.42l0.31-3.199l2.17-5.08l4.96-0.16l-4.26-14.141l0.08-6.01l6.74-10.541l0.08-1.479l-1.012-0.551
	l0.04-2.859l-1.229-0.109l-1.24-1.58l-20.35-0.92l-3.73,3.629l-6.108-4.02l-2.15,1.32l-1.56,13.129l-3.86,2.98l-1.16,2.641
	l0.207,3.91l-6.96,5.691l-1.85-0.841l0.25,1.091L489.38,355.709L489.38,355.709z M537.82,339.9l2.81,2.591l-0.12,2.77l-4.358,0.09
	v-3.061L537.82,339.9L537.82,339.9z M536.21,346.209l4.271-0.09l-1.11,3.739l-1.08,0.94h-1.32l-0.938-2.53L536.21,346.209
	L536.21,346.209z M538.3,339.09l3.03,2.84l1.9-1.209l5.14-0.842l0.88,0.092l0.33-1.951l2.9-6.1l-2.44-5.08l-7.91,0.051l-0.05,2.09
	l1.061,1.02l-0.159,2.09L538.3,339.09L538.3,339.09z M550.83,326.52l2.66,5.189l-3.19,6.69l-0.42,2.029l15.93,9.85l4.94-7.76
	l-2.5-2.028l-0.05-10.222l3.13-3.42l-4.99,1.659l-3.77,0.052l-5.9-4.979l-1.86-0.802l-3.448,0.32l-0.61,1.021L550.83,326.52
	L550.83,326.52z M550.57,371.42l17.47-2.142l-3.93-7.6l-0.21-7.279l1.27-3.479l-16.62-10.439l-5.21,0.859l-1.81,1.34l-0.16,3.051
	l-1.17,4.229l-1.22,1.451l-1.75,0.159l3.35,11.609l5.47,2.569l3.771,0.109L550.57,371.42L550.57,371.42z M514.55,384.7l3.17,4.399
	l4.91,0.301l1.74,0.959l5.14,0.062l4.43-6.211l12.382-5.539l1.08-4.881l-1.44-6.99l-6.46-3.68l-4.312,0.301l-2.148,4.76l0.06,2.17
	l5.08,2.471l0.3,5.369l-4.368,0.24l-1.08-1.811l-12.142-5.181l-0.358,3.979l-5.74,0.181L514.55,384.7L514.55,384.7z M488.62,356.709
	l3.41,12.729l-0.08,4.021l-4.99,5.36l-0.75,8.709l19.2,0.171l6.24,2.26l5.148-0.67l-3-3.761l0.011-10.739l5.899-0.25v-4.189
	l-4.79-0.199l-0.96-9.92l-2.02,0.029l-1.092-0.98l-1.188,0.061l-1.58,3.062H502l-1.41-1.42l0.42-2.011l-1.66-2.43L488.62,356.709
	L488.62,356.709z M547.16,379.4l3.108,3.25l-0.06,4.16l0.6,1.75l4.131-4.461l-0.479-5.67l-2.21-1.688l-1.97-9.951l-3.41-0.119
	l1.55,7.17L547.16,379.4L547.16,379.4z M541.17,413.279l2.69,2.229l6.34-3.858l1.02-5.729v-9.461l10.17-8.318l1.74,0.061l6.16-5.91
	l-0.96-12.182L552,372.17l0.48,3.68l2.81,2.17l0.66,6.631l-5.5,5.369l-1.32-3.01l0.24-3.98l-3.17-3.439l-7.78,3.621l7.24,3.681
	l0.24,10.729l-4.79,7.109L541.17,413.279L541.17,413.279z M524.66,392.299l8.97,10.131l6.88,1.75l4.61-7.229l-0.36-9.58l-7.479-3.86
	l-2.812,1.271l-4.188,6.391l-5.801-0.062L524.66,392.299L524.66,392.299z M496.55,421.959l3.352,0.24l1.97,1.99l4.67,0.061
	l1.14-13.261v-8.68l2.99-0.601l1.14-9.102l7.602-0.238l2.689-2.229l-4.551-0.181l-6.16,0.84l-6.64-2.409h-18.66l0.48,5.299
	l6.22,9.16l-1.08,4.7l0.062,2.47L496.55,421.959L496.55,421.959z M508.51,411.23l2.15,0.66l-0.3,6.149l2.21,0.299l5.08-4.58
	l6.1,0.66l1.62-4.1l7.72-7.051l-9.27-10.67l-0.12-1.75l-1.021-0.301l-2.81,2.592l-7.3,0.18l-1.021,9.1l-2.87,0.66L508.51,411.23
	L508.51,411.23z M540.87,414l-2.51,0.42l-1.08,2.949l1.92,1.75h2.33l1.97-2.83L540.87,414L540.87,414z M527.41,425.389l3.05-2.35
	l1.44,0.061l1.738,2.17l-0.18,2.172l-2.93,1.078v0.842l-3.23-0.182l-0.78-2.35L527.41,425.389L527.41,425.389z M534.16,403.629
	l-7.9,7.301l-1.88,4.51l-6.26-0.779l-5.21,4.631l-3.46-0.34l0.278-6.4l-1.229-0.43l-0.86,13.09l-6.14-0.061l-1.85-2.182
	l-2.712-0.027l2.472,7.09l4.41,4.17l-3.15,3.67l2.04,4.6l4.72,1.801l3.76-3.199l10.771,0.059l0.771-0.959l4.778-0.84l16.17-16.1
	l-0.06-5.07l-1.73,2.239h-2.59l-3.148-2.641l1.6-3.979l2.75-0.56l-0.25-8.181L534.16,403.629L534.16,403.629z M530.37,422.129
	l1.51-0.059l2.45,2.66l-0.07,3.078l-2.87,1.449l-0.18,1.021l-4.38,0.051l-1.37-3.301l1.25-2.42L530.37,422.129L530.37,422.129z
	 M321.13,50.07l-1.36,2.17l2.45,2.45l-1.09,2.45l3.54,4.62l4.352-1.36l5.71-0.54l6.528,7.07l4.352,11.69l-3.53,7.34l4.89-0.82
	l2.722,1.63l0.27,3.54l-5.979,0.27l3.26,3.26l4.08,0.82l-8.972,11.96l-1.09,7.34l1.9,5.98l-1.36,3.54l2.45,7.61l4.62,5.17l1.36-0.27
	l2.988-0.82l0.271,4.35l1.898,2.72l3.53-0.27l2.72-10.06l8.16-10.06l12.24-4.89l7.61-9.52l3.528,1.63h7.34l5.98-5.98l7.34-2.99
	l0.82-4.62l-4.62-4.08l-4.08-1.36l-2.18-5.71l5.17-2.99l8.16,4.35l2.72-2.99l-4.35-2.45l9.25-12.51L423.1,62.3l-4.35-0.27l1.63-4.89
	l5.44-2.45l11.148-9.79l-3.26-3.53l-12.51,1.09l-6.53,6.53l3.812-8.43l-4.352-1.09l-2.45,4.35l-3.528-2.99l-9.79,1.09l2.72-4.35
	l16.04-0.54l-4.08-5.44l-17.4-3.26l-7.068,1.09l0.27,3.54l-7.34-2.45l0.27-2.45l-5.17,1.09l-1.09,2.72l5.44,1.9l-5.71,4.08
	l-4.08-4.62l-5.71-1.63l-0.82,4.35h-5.71l-2.18-4.62l-8.972-1.36l-4.89,2.45l-0.27,3.26l-6.25-0.82l-3.812,1.63l0.271,3.81v1.9
	l-7.07,1.36l-3.26-2.17l-2.182,3.53l3.262,3.54l6.8-0.82l0.54,2.18l-5.17,2.45L321.13,50.07L321.13,50.07z M342.89,92.49l1.63,2.45
	l-0.818,2.99h-1.63l-2.182-2.45l0.54-1.9L342.89,92.49L342.89,92.49z M410.87,85.69l4.62,1.36l-0.271,3.81l-4.89-2.45l-1.09-1.36
	L410.87,85.69L410.87,85.69z M761.17,427.981l-0.35,25.379l-3.9,2.859l-0.35,2.5l5.318,3.57l13.13-2.5h6.74l2.48-3.58l14.898-2.861
	l10.642,3.223l-0.71,4.289l1.42,4.291l8.159-1.432l0.351,2.141l-5.32,3.93l1.771,1.43l3.898-1.43l-1.06,11.801l7.45,5.719l4.26-1.43
	l2.13,2.143l12.42-1.791l11.71-18.949l4.26-1.07l8.512-15.729l2.13-13.58l-5.32-6.791l2.13-1.432l-4.26-13.229l-4.61-3.22
	l0.711-17.871l-4.261-3.219l-1.06-10.011h-2.131l-7.101,23.591l-3.899,0.358l-8.869-8.938l4.97-13.229l-9.22-1.791l-10.29,2.86
	l-2.841,8.22l-4.609,1.069l-0.35-5.72l-18.802,11.439l0.352,4.289l-2.841,3.932h-7.101l-15.26,6.431L761.17,427.981L761.17,427.981z
	 M825.74,496.26l-1.771,7.15l0.352,5l5.318-0.361l6.03-9.289L825.74,496.26L825.74,496.26z M913.02,481.959l1.062,11.801
	l-1.42,5.359l-5.32,3.93l0.352,4.65v5l1.42,1.791l14.55-12.512v-2.859h-3.55l-4.972-16.799L913.02,481.959L913.02,481.959z
	 M902.38,507.7l2.84,5.359l-7.81,7.512l-0.71,3.93l-5.32,0.709l-8.87,8.221l-8.16-3.93l-0.71-2.861l14.9-6.43L902.38,507.7
	L902.38,507.7z M722.48,317.57l-0.28,2.279l6.79,11.409h1.979l14.15,23.671l5.66,0.569l2.83-8.27l-4.53-2.852l-0.852-4.56
	L722.48,317.57L722.48,317.57z M764.14,332.92l3.021,3.49l11.58-4.011l2.29-8.84l5.16-0.371l4.72-3.42l-6.12-4.459l-1.4-2.451
	l-3.02,5.57l1.108,3.2l-1.84,2.67l-3.47-0.891l-8.41,6.17l0.22,3.57L764.14,332.92L764.14,332.92z M779.77,319.25l-2.88,3.49
	l2.36,0.739l1.33-1.86L779.77,319.25L779.77,319.25z M789.53,349.109l2.26,2.771l-1.47,4.16v0.791h3.34l1.18-10.4l1.08,0.301
	l1.96,9.5l1.87,0.5l1.771-4.061l-1.771-6.142l-1.47-2.67l4.62-3.368l-1.08-1.49l-4.42,2.869h-1.182l-2.158-3.17l0.688-1.39
	l3.642-1.781l5.5,1.681l1.67-0.101l4.13-3.858l-1.67-1.681l-3.83,2.97h-2.46L798,332.76l-2.648,0.1l-2.95,4.75l-1.87,8.221
	L789.53,349.109L789.53,349.109z M814.19,330.5l-1.87,4.549l2.948,3.861h0.98l1.28-2.57l0.688-0.891l-1.278-1.39l-1.87-0.69
	L814.19,330.5L814.19,330.5z M819.99,345.45l-4.03,0.891l-1.18,1.289l0.979,1.682l2.65-0.99l1.67-0.99l2.46,1.98l1.08-0.891
	l-1.96-2.381L819.99,345.45L819.99,345.45z M753.17,358.32l-2.75,1.88l0.59,1.579l8.75,1.979l4.42,0.791l1.87,1.98l5.01,0.398
	l2.36,1.98l2.16-0.5l1.97-1.781l-3.64-1.68l-3.142-2.67l-8.158-1.98L753.17,358.32L753.17,358.32z M781.77,366.93l-2.158,1.189
	l1.278,1.391l3.142-1.189L781.77,366.93L781.77,366.93z M785.5,366.04l0.39,1.881l2.262,0.59l0.88-1.09l-0.98-1.49L785.5,366.04
	L785.5,366.04z M790.91,370.991l-2.75,0.399l2.46,2.079h1.96L790.91,370.991L790.91,370.991z M791.69,367.721l-0.592,1.189
	l4.42,0.688l3.44-1.979l-1.96-0.591l-3.14,0.892l-1.182-0.99L791.69,367.721L791.69,367.721z M806.14,368.42l-5.108,4.26l0.488,1.09
	l2.16-0.398l2.552-2.381l5.01-0.689l-0.98-1.68L806.14,368.42L806.14,368.42z M880.48,349l-0.882,1.25l4.812,4.26l0.66,2.5
	l1.31-0.15l0.15-2.568l-1.46-1.319L880.48,349L880.48,349z M882.89,355.029l-0.948,0.222l-0.58,2.569l-1.82,1.181l-5.47,0.959
	l0.22,2.061l5.76-0.289l3.65-2.279l-0.22-3.971L882.89,355.029L882.89,355.029z M889.38,359.51l1.24,3.449l2.188,2.131l0.66-0.59
	l-0.22-2.279l-2.479-3.012L889.38,359.51L889.38,359.51z M895.43,364.65l0.15,2.279l1.39,1.319l1.312-0.811l-1.17-2.43
	L895.43,364.65L895.43,364.65z M897.18,370.311l-1.17,1.25l1.24,2.279l1.46,0.438l-0.07-1.538L897.18,370.311L897.18,370.311z
	 M900.03,368.991l1.02,2.5l1.97,2.35l1.092-1.76l-1.46-2.5L900.03,368.991L900.03,368.991z M903.02,384.049l-1.75,0.811l1.53,2.131
	l1.312-0.74L903.02,384.049L903.02,384.049z M789.37,297.53l-0.86,1.641l-0.479,2.02l-4.78,6.07l0.29,1.25l2.01-0.29l6.21-6.94
	L789.37,297.53L789.37,297.53z M797.11,295.22l-0.102,5.01l1.82,1.83l0.67,3.56l1.82,0.391l0.858-2.221l-1.43-1.06l-0.38-6.26
	L797.11,295.22L797.11,295.22z M802.28,297.15l-0.102,4.431l1.052,1.729l1.818-2.12l-0.479-3.85L802.28,297.15L802.28,297.15z
	 M803.42,293.29l1.82,2.41l0.858,2.311h1.632l-0.29-3.95l-1.82-1.25L803.42,293.29L803.42,293.29z M806.96,302.35l0.38,2.891
	l-3.35,2.699l-2.771,0.29l-2.96,3.181l0.102,1.448l2.77-0.868l1.91-1.25l1.63,4.139l2.87,2.021l1.15-0.391l1.05-1.25l-2.29-2.311
	l1.34-1.06l1.53,1.25l1.05-1.729l-1.05-2.121l-0.19-4.719L806.96,302.35L806.96,302.35z M791.38,272.97l-2.58,1.829l-0.29,5.781
	l4.021,7.799l1.34,1.061l1.72-1.16l2.96,0.48l0.57,2.6l2.2,0.189l1.05-1.439l-1.34-1.83l-1.63-1.539l-3.44-0.381l-1.82-2.99
	l2.102-3.18l0.188-2.79l-1.43-3.56L791.38,272.97L791.38,272.97z M792.72,290.209l0.761,2.701l1.341,0.869l0.96-1.25l-1.53-2.119
	L792.72,290.209L792.72,290.209z M759.83,270.17l-2.39,0.67l-1.722,2.119l1.432,2.791l2.1,0.189l2.39-2.12l0.57-2.79L759.83,270.17
	L759.83,270.17z M787.46,248.31l-3.54,2.7l-0.188,5.2l3.06,3.56l0.76-0.67L787.46,248.31L787.46,248.31z M803.23,216.42l-1.632,1.64
	l0.67,2.31l1.432,0.1l0.96,5.01l1.148,1.25l2.012-1.83l0.858-3.28l-2.488-3.56L803.23,216.42L803.23,216.42z M812.03,213.15
	l-2.771,2.6l-0.1,2.99l0.67,0.87l3.729-3.18l-0.29-3.18L812.03,213.15L812.03,213.15z M808.2,206.98l-4.88,5.59l0.858,1.35
	l2.392,0.29l4.488-3.47l3.16-0.58l2.87,3.37l2.2-0.77l0.86-3.28l4.108-0.1l4.021-4.82l-2.102-8l-0.96-4.24l2.102-1.73l-4.78-7.22
	l-1.24,0.1l-2.58,2.89v2.41l1.15,1.35l0.38,6.36l-2.96,3.66l-1.72-1.06l-1.342,2.99l-0.29,2.79l1.052,1.64l-0.67,1.25l-2.2-1.83
	h-1.53l-1.34,0.77L808.2,206.98L808.2,206.98z M816.43,163.44l-1.528,1.35l0.77,2.89l1.34,1.35l-0.1,4.43l-1.72,0.67l-1.342,2.99
	l3.921,5.39l2.579-0.87l0.48-1.35l-2.771-2.5l1.722-2.22l1.818,0.29l1.432,1.54l0.1-3.18l3.92-3.18l2.2-0.58l-1.82-3.08l-0.858-1.35
	l-1.432,0.96l-1.238,1.54l-2.682-0.58l-2.77-1.83L816.43,163.44L816.43,163.44z M830.86,160.45l-2.682,3.76l0.19,1.83l1.34-0.58
	l3.15-3.95L830.86,160.45L830.86,160.45z M834.4,154.96l-0.96,2.6l0.1,1.73l1.63-1.06l1.53-3.08V154L834.4,154.96L834.4,154.96z
	 M840.04,132.03l-1.24,1.54l0.102,2.41l1.148-0.1l1.91-3.37L840.04,132.03L840.04,132.03z M837.75,137.91v4.24l1.34,0.48l0.96-1.54
	v-3.27L837.75,137.91L837.75,137.91z M798.64,122.59l-0.09,6.17l7.74,11.95l2.77,10.4l4.882,9.25l1.908,0.67l1.631-1.35l0.761-2.22
	l-6.98-7.61l0.19-3.95l1.53-0.67l0.38-2.31l-13.67-19.36L798.64,122.59L798.64,122.59z M852.57,103.42l-1.91,0.19l1.15,1.64
	l2.39,1.64l0.67-0.77L852.57,103.42L852.57,103.42z M856.29,104.58l0.29,1.64l2.96,0.87l0.29-1.16L856.29,104.58L856.29,104.58z
	 M872.54,110.87l1.25,2.24l2.08-0.14l0.42-1.54L872.54,110.87L872.54,110.87z M69.17,53.35l3.46,6.47l2.22-0.5v-2.24L69.17,53.35
	L69.17,53.35z M49.66,110.26l-0.17,3.01l2.16-0.5v-1.34L49.66,110.26L49.66,110.26z M613.01,398.991l-1.52,1.989l0.3,2.149l3.2-2.61
	L613.01,398.991L613.01,398.991z M607.38,402.37l-2.28,0.149l-0.148,1.989l1.52,0.312l2.28-1.069L607.38,402.37L607.38,402.37z
	 M592.3,372.92l-2.13,5.061l-3.65,6.439l-6.39,0.459l-2.74,3.221l0.46,9.82l-3.96,4.6l0.46,7.82l3.352,3.83l3.96-0.461l3.96-2.92
	l-0.91-4.601l9.13-15.799l-1.83-1.99l1.83-3.83l1.98,0.609l0.608-1.529l-1.83-7.819l-1.068-3.222L592.3,372.92L592.3,372.92z
	 M577.69,371.23l0.46,1.528l1.979,0.312l0.76-1.989L577.69,371.23L577.69,371.23z M580.58,374.299l0.76,1.691h1.22l0.61-2.15
	L580.58,374.299L580.58,374.299z M602.35,358.34l-0.608,1.229l1.67,1.38l1.22-1.38L602.35,358.34L602.35,358.34z M610.88,349.141
	l-1.83,1.229l1.37,2.149h1.83L610.88,349.141L610.88,349.141z M611.64,354.51l-1.22,1.381l0.91,1.379l1.67,0.311l0.15-2.92
	L611.64,354.51L611.64,354.51z M656.4,320.76l0.3,2.609l1.67,0.61l0.3-2.301L656.4,320.76L656.4,320.76z M658.53,326.279
	l-0.15,3.222l1.22,0.608l1.07-2.149L658.53,326.279L658.53,326.279z M658.84,332.57l-1.07,1.07l1.222,1.069l1.52-1.069
	L658.84,332.57L658.84,332.57z M372.64,217.02l-1.358,1.37l2.438,1.37l0.271-1.91L372.64,217.02L372.64,217.02z M379.97,216.2
	l-1.63,1.09l1.36,1.09l2.17-0.55L379.97,216.2L379.97,216.2z M381.05,220.03l-0.81,2.19l1.08,1.37l1.358-1.09L381.05,220.03
	L381.05,220.03z M387.56,224.4l-0.54,1.37l0.812,0.82l2.17-1.37L387.56,224.4L387.56,224.4z M408.18,236.42l-1.08,1.37l1.08,1.37
	l1.63-0.82L408.18,236.42L408.18,236.42z M415.62,253.73l-1.75,1.01l0.81,0.82L415.62,253.73L415.62,253.73z M409.54,253.92
	l-2.17,0.55l1.08,1.64h1.63L409.54,253.92L409.54,253.92z M404.38,252.28l-1.36,1.37l1.9,1.64l1.08-2.46L404.38,252.28
	L404.38,252.28z M387.56,290.54l-1.898,1.09l1.358,1.091l1.632-0.82L387.56,290.54L387.56,290.54z M392.23,292.741l-1.24,1.1
	l0.88,1.63l2.12-0.95L392.23,292.741L392.23,292.741z M389.52,295.831l-1.59,0.949l1.71,2.29l1.352-0.71L389.52,295.831
	L389.52,295.831z M276.6,283.37l-1.5,0.621l0.53,1.329l1.76-1.149l-0.35-0.36L276.6,283.37L276.6,283.37z M279.07,284.879
	l-0.88,1.871l1.06,1.42l1.32-1.15L279.07,284.879L279.07,284.879z M282.07,290.03l-1.06,0.98l0.79,1.6l1.5-0.439L282.07,290.03
	L282.07,290.03z M281.98,294.03l-0.71,1.51l1.15,1.24l1.5-0.8L281.98,294.03L281.98,294.03z M282.07,297.85l-1.23,0.891l0.97,1.779
	l1.59-0.891L282.07,297.85L282.07,297.85z M280.57,301.31l-1.15,1.149l0.44,0.711h1.41l0.44-1.16L280.57,301.31L280.57,301.31z
	 M282.24,304.78l-1.06,0.98l-1.15,0.18v1.42l2.12,1.95l0.88-1.42l0.53-1.601l-0.18-1.33L282.24,304.78L282.24,304.78z
	 M271.05,281.06l-2.64-0.89l-2.12,1.33l1.06,1.239l3.61,0.53L271.05,281.06L271.05,281.06z M250.87,275.379l-1.67,1.711l1.91,0.779
	l0.28,2.391l-4.23,0.369l0.43,2.301l1.23,0.09l0.71-1.061l4.94,0.16l0.89,1.711l1.14-1.34l3.33-0.9l2.93,0.619l0.34-1.77
	l-5.28-3.449l-3.42-1.281L250.87,275.379L250.87,275.379z M263.11,280.44l-5.29-3.46l-2.5-0.851l-0.84,6l0.88,1.69l1.15-1.329
	l3.35-0.891l2.91,0.62L263.11,280.44L263.11,280.44z M250.86,275.379l3.44,0.361l-0.41,4.219l-0.34,2.221l-4.01-0.221l-0.71,1.07
	l-1.23-0.09l-0.44-2.311l4.23-0.35l-0.26-2.4l-1.94-0.799L250.86,275.379L250.86,275.379z M307.95,508.18l-2.63-0.291l-2.62,1.762
	l1.898,2.061L307.95,508.18L307.95,508.18z M310.57,506.86l-0.87,2.791l-2.48,2.197l0.15,0.73l4.229-1.619l1.75-2.201L310.57,506.86
	L310.57,506.86z M406.36,117.31l-1.96-1.11l-2.642,1.67l-2.27,2.1l0.06,1.17l2.94,0.37l-0.182,2.1l-1.04,1.05l0.25,0.68l2.94,0.19
	v3.4l4.23,0.74l2.51,1.42l2.818,0.12l4.842-2.41l3.738-4.94l0.062-3.34l-2.271-1.92l-1.898-1.61l-0.86,0.62l-1.29,1.67l-1.47-0.19
	l-1.47-1.61l-1.9,0.18l-2.76,2.29l-1.66,1.79l-0.92-0.8l-0.062-1.98l0.92-0.62L406.36,117.31L406.36,117.31z M488.26,53.96
	l-1.648-1.66l-3.66,1.78h-6.72L475.17,58l3.771,3.33l1.648-0.24l2.36-4.04l2,1.43l-1.42,2.85l-0.71,4.16l1.648,2.61l3.54-5.94
	l4.602-5.59l-1.771-1.54L488.26,53.96L488.26,53.96z M490.26,46.83l-2.95,2.73l1.771,2.73h3.18l1.3,1.78l3.892,2.02l4.479-2.61
	l3.07-2.61l-1.06-2.14l-3.07-1.78l-2.24,2.02l-1.53-1.9l-1.18,0.12l-1.53,3.33l-2.238-2.26l-0.24-1.54L490.26,46.83L490.26,46.83z
	 M496.98,59.07l-2.36,2.14l-2,1.54l0.938,1.66L495.45,65l3.069-1.43l1.421-1.78l-1.302-2.14L496.98,59.07L496.98,59.07z
	 M547.82,38.79l1.72,0.69l-1.21,2.08v2.95l-2.58,1.56H543l-1.55-1.91l0.17-2.08l1.21-1.56h2.41L547.82,38.79L547.82,38.79z
	 M554.36,36.88v2.08l1.72,1.39l2.41-0.17l2.068-1.91v-1.39h-1.89l-1.55,0.52l-1.21-1.39L554.36,36.88L554.36,36.88z M564.18,37.06
	l1.21,2.6l2.41,0.17l1.72-0.69l-0.858-2.43l-2.24-0.52L564.18,37.06L564.18,37.06z M573.99,33.59l-1.892-0.35l-1.72,1.74l0.86,1.56
	l0.52,2.43l2.24-1.73l0.521-1.91L573.99,33.59L573.99,33.59z M584.49,51.98l-0.521,2.43l-3.96,3.47l-8.438,1.91l-6.892,11.45
	l-1.21,3.3l6.892,1.74l1.028-4.16l2.07-6.42l5.34-2.78l4.48-3.47l3.27-1.39h1.72v-4.68L584.49,51.98L584.49,51.98z M562.28,77.31
	l4.648,0.52l1.552,5.38l3.96,4.16l-1.38,2.78h-2.41l-2.24-2.6l-4.99-0.17l-2.07-2.78v-1.91l3.102-0.87L562.28,77.31L562.28,77.31z
	 M634.95,18.15l-2.24-1.39h-2.58l-0.52,1.56l-2.75,1.56l-2.07,0.69l-0.34,2.08L629.27,23L634.95,18.15L634.95,18.15z M640.28,18.67
	l-1.21,2.6l-2.41-0.17l-3.79,2.78l-1.03,3.47h2.41l1.38-2.26l3.271,2.43l3.1-1.39l2.24-1.91l-0.86-2.95l-1.21-2.08L640.28,18.67
	L640.28,18.67z M645.28,20.58l1.21,4.86l1.89,4.51l2.07-3.64l3.96-0.87v-2.6l-2.58-1.91L645.28,20.58L645.28,20.58z M739.76,12.8
	l2.69,2.26l1.91-0.79l0.56-3.17L741,8.39l-2.58,1.7l-6.28,0.57v2.83l-6.62,0.11v4.63l7.74,5.76l2.021-1.47l-0.45-4.07l4.938-1.24
	l-1.01-1.92l-1.79-1.81L739.76,12.8L739.76,12.8z M746.94,10.09l1.79,3.39l6.96-0.79l1.908-2.49l-0.448-2.15l-1.91-0.79l-1.79,1.36
	l-5.16,1.13L746.94,10.09L746.94,10.09z M746.49,23.31l-3.48-0.9L741,24.56l-0.9,2.94l4.71-0.45l3.592-1.81L746.49,23.31
	L746.49,23.31z M836.68,3.76l-2.92-0.9L830.4,4.1l-1.682,2.49l2.13,2.83l5.61-2.49l1.12-1.24L836.68,3.76L836.68,3.76z
	 M680.54,308.049l0.25,2.721l0.25,1.98l-1.47,0.25l0.738,4.449l2.211,1.239l3.431-1.979l-0.98-4.689l0.25-1.729l-3.188-2.961
	L680.54,308.049L680.54,308.049z M220.85,266.92v1.27l5.32,0.1l2.51-1.459l0.39,1.07l5.22,1.271l4.64,4.189l-1.06,1.46l0.19,1.66
	l3.87,0.97l3.87-1.75l1.74-1.75l-2.51-1.27l-12.95-7.6l-4.54-0.49L220.85,266.92L220.85,266.92z M239.61,259.13l-1.26-0.39
	l-0.1,2.43l1.55,1.56l1.06-1.56L239.61,259.13L239.61,259.13z M242.12,262.93l-1.74,0.97l1.64,2.34l0.87-1.17L242.12,262.93
	L242.12,262.93z M247.73,264.68l-1.84-0.1l0.19,1.17l1.35,1.95l1.16-1.27L247.73,264.68L247.73,264.68z M246.86,262.35l-3-1.27
	l-0.58-3.02l1.16-0.49l1.16,2.34l1.16,0.88L246.86,262.35L246.86,262.35z M243.96,256.21l-1.55-0.39l-0.29-1.95l-1.64-0.58
	l1.06-1.07l1.93,0.68l1.45,0.88L243.96,256.21L243.96,256.21z M238.93,279.59l-3.48,0.88v0.97l2.03,1.17h2.13l1.35-1.561
	L238.93,279.59L238.93,279.59z M831.93,339.34l-4.17,0.471l-2.68,1.959l1.11,2.24l4.54,0.84v0.84l-2.87,2.33l1.39,4.852l1.39,0.09
	l1.2-4.76h2.22l0.932,4.658l10.83,8.961l0.278,7l3.7,4.01l1.67-0.09l0.37-24.721l-6.29-4.379l-5.93,4.01l-2.13,1.311l-3.521-2.24
	l-0.09-7.09L831.93,339.34L831.93,339.34z M93.11,44.89l-8.39,1.99l1.73,9.45l9.13,2.49l0.49,1.99L82.5,65.04l-7.65,12.68
	l2.71,13.43L82,94.13l3.46-3.23l0.99,1.99l-4.2,4.97l-16.29,7.46l-10.37,2.49l-0.25,3.73l23.94-6.96l9.87-2.74l9.13-11.19
	l10.12-6.71l-5.18,8.7l5.68,0.75l9.63-4.23l1.73,6.96l6.66,1.49l6.91,6.71l0.49,4.97l-0.99,1.24l1.23,4.72h1.73l0.25-7.96h1.97
	l0.49,19.64l4.94-4.23l-3.46-20.39h-5.18l-5.68-7.21l27.89-47.25l-27.64-21.63l-30.85,5.97l-1.23,9.45l6.66,3.98l-2.47,6.47
	L93.11,44.89L93.11,44.89z M194.97,338.18l-0.62,2.75l-1.15,1.16l0.79,1.42l2.03-0.801l0.97-1.689l-0.62-1.779L194.97,338.18
	L194.97,338.18z M203.73,35.89l0.22,4.02l-7.98,8.27l2,6.7l5.76-1.56l3.33-4.92l8.42-3.13l6.87-0.45l-5.32-5.81l-2.66,2.01l-2-0.67
	l-1.11-2.46l-2.44-2.46L203.73,35.89L203.73,35.89z M214.15,24.05l-1.77,3.13l8.65,3.13l3.1-4.69l1.33,3.13h2.22l4.21-4.69
	l-5.1-1.34l-2-1.56l-2.66,2.68L214.15,24.05L214.15,24.05z M229.23,30.31l-6.87,2.9v2.23l8.87,3.35l-2,2.23l1.33,2.9l5.54-2.46h4.66
	l2.22,3.57l3.77-3.8l-0.89-3.58l-3.1,1.12l-0.44-4.47l1.55-2.68h-1.55l-2.44,1.56l-1.11,0.89l0.67,3.13l-1.77,1.34l-2.66-0.22
	l-0.67-4.02L229.23,30.31L229.23,30.31z M238.32,23.38l-0.67,2.23l4.21,2.01l3.1-1.79l-0.22-1.34L238.32,23.38L238.32,23.38z
	 M241.64,19.58l-3.1,1.12l0.22,1.56l6.87-0.45l-0.22-1.56L241.64,19.58L241.64,19.58z M256.5,23.38l-0.44,1.56l-1.11,1.56v2.23
	l4.21-0.67l4.43,3.8h1.55v-3.8l-4.43-4.92L256.5,23.38L256.5,23.38z M267.81,27.85l1.77,2.01l-1.55,2.68l1.11,2.9l4.88-2.68v-2.01
	l-2.88-3.35L267.81,27.85L267.81,27.85z M274.24,22.71l0.22,3.57h5.99l1.55,1.34l-0.22,1.56l-5.32,0.67l3.77,5.14l5.1,0.89
	l7.09-3.13l-10.2-15.42l-3.1,2.01l0.22,2.68l-3.55-1.34L274.24,22.71L274.24,22.71z M222.58,47.96l-8.42,2.23l-4.88,4.25l0.44,4.69
	l8.87,2.68l-2,4.47l-6.43-4.02l-1.77,3.35l4.21,2.9l-0.22,4.69l6.43,1.79l7.76-0.45l1.33-2.46l5.76,6.48l3.99-1.34l0.67-4.47
	l2.88,2.01l0.44-4.47l-3.55-2.23l0.22-14.07l-3.1-2.46L231.89,56L222.58,47.96L222.58,47.96z M249.63,57.79l-2.88-1.34l-1.55,2.01
	l3.1,4.92l0.22,4.69l6.65-4.02v-5.81l2.44-2.46l-2.44-1.79h-3.99L249.63,57.79L249.63,57.79z M263.82,55.78l-4.66,3.8l1.11,4.69
	h2.88l1.33-2.46l2,2.01l2-0.22l5.32-4.47L263.82,55.78L263.82,55.78z M263.37,48.4l-1.11,2.23l4.88,1.79l1.33-2.01L263.37,48.4
	L263.37,48.4z M260.49,39.91l-4.88,0.67l-2.88,2.68l5.32,0.22l-1.55,4.02l1.11,1.79l1.55-0.22l3.77-6.03L260.49,39.91L260.49,39.91z
	 M268.92,38.35l-2.66,0.89l0.44,3.57l4.43,2.9l0.22,2.23l-1.33,1.34l0.67,4.47l17.07,5.58l4.66,1.56l4.66-4.02l-5.54-4.47l-5.1,1.34
	l-7.09-0.67l-2.66-2.68l-0.67-7.37l-4.43-2.23L268.92,38.35L268.92,38.35z M282.88,61.59L278,61.14l-5.76,2.23l-3.1,4.24l0.89,11.62
	l9.53,0.45l9.09,4.47l6.43,7.37l4.88-0.22l-1.33,6.92l-4.43,7.37l-4.88,2.23l-3.55-0.67l-1.77-1.56l-2.66,3.57l1.11,3.57l3.77,0.22
	l4.66-2.23l3.99,10.28l9.979,6.48l6.87-8.71l-5.76-9.38l3.33-3.8l4.66,7.82l8.42-7.37l-1.55-3.35l-5.762,1.79l-3.988-10.95
	l3.77-6.25l-7.54-8.04l-4.21,2.9l-3.99-8.71l-8.418,1.12l-2.22-10.5l-6.87,4.69l-0.67,5.81h-3.77l0.44-5.14L282.88,61.59
	L282.88,61.59z M292.86,65.61l-1.77,1.79l1.55,2.46l7.32,0.89l-4.66-4.92L292.86,65.61L292.86,65.61z M285.77,40.36v2.01l-4.88,1.12
	l1.33,2.23l5.54,2.23l6.21,0.67l4.432,3.13l4.43-2.46l-3.102-3.13h3.99l2.44-2.68l5.99-0.89v-1.34l-3.33-2.23l0.438-2.46l9.312,1.56
	l13.75-5.36l-5.102-1.56l1.33-1.79h10.64l1.771-1.79l-21.51-7.6l-5.102-1.79l-5.54,4.02l-6.21-5.14l-3.33-0.22l-0.67,4.25
	l-4.209-3.8l-4.88,1.56l0.89,2.46l7.32,1.56l-0.44,3.57l3.99,2.46l9.762-2.46l0.22,3.35l-7.98,3.8l-4.88-3.8l-4.43,0.45l4.43,6.26
	l-2.22,1.12l-3.33-2.9l-2.44,1.56l2.22,4.24h3.77l-0.89,4.02l-3.1-0.45l-3.99-4.25L285.77,40.36L285.77,40.36z M266.01,101.85
	l-4.23,5.32l-0.26,5.86l3.7-2.13h4.49l3.17,2.93l2.91-2.4L266.01,101.85L266.01,101.85z M317.52,171.05l-10.568,10.12l1.06,2.4
	l12.94,4.79l1.85-3.19l-1.06-5.32l-4.23,0.53l-2.38-2.66l3.96-3.99L317.52,171.05L317.52,171.05z M158.22,48.66l1.99,3.01l1,4.02
	l4.98,1.25l3.49-3.76l2.99,1.51l8.47,0.75l5.98-2.51l1,8.28h3.49V57.7l3.49,0.25l8.72,10.29l5.73,3.51l-2.99,4.77l1.25,1.25
	L219,80.03l0.25,5.02l2.99,0.5l0.75-7.53l4.73-1.25l3.49,5.27l7.47,3.51l3.74,0.75l2.49-3.01l0.25-4.77l4.48-2.76l1.49,4.02
	l-3.99,7.03l0.5,3.51l2.24-3.51l4.48-4.02l0.25-5.27l-2.49-4.02l0.75-3.26l5.98-3.01l2.74,2.01l0.5,17.57l4.23-3.76l2.49,1.51
	l-3.49,6.02l4.48,1l6.48-10.04l5.48,5.77l-2.24,10.29l-5.48,3.01l-5.23-2.51l-9.46,2.01l1,3.26l-2.49,4.02l-7.72,1.76l-8.72,6.78
	l-7.72,10.29l-1,3.26l5.23,2.01l1.99,5.02l7.22,7.28l11.46,5.02l-2.49,11.54l-0.25,3.26l2.99,2.01l3.99-5.27l0.5-10.04l6.23-0.25
	l2.99-5.77l0.5-8.78l7.97-15.56l9.96,3.51l5.23,7.28l-2.24,7.28l3.99,2.26l9.71-6.53l2.74,17.82l8.97,10.79l0.25,5.52l-9.96,2.51
	l-4.729,5.02l-9.96-2.26l-4.98-0.25l-8.72,6.78l5.23-1.25l6.48-1.25l1.25,1.51l-1.74,5.52l0.25,5.02l2.99,2.01l2.99-0.75l1.5-2.26
	h1.99l-3.24,6.02l-6.23,0.25l-2.74,4.02h-3.49l-1-3.01l4.98-5.02l-5.98,2.01l-0.27-8.53l-1.72-1l-5.23,2.26l-0.5,4.27h-11.96
	l-10.21,7.03l-13.7,4.52l-1.49-2.01l6.9-10.3l-3.92-3.77l-2.49-4.78l-5.07-3.87l-5.44-0.45l-9.75-6.83l-70.71-11.62l-1.17-4.79
	l-6.48-6.02v-5.02l1-4.52l-0.5-2.51l-2.49-2.51l-0.5-4.02l6.48-4.52l-3.99-21.58l-5.48-0.25l-4.98-6.53L158.22,48.66L158.22,48.66z
	 M148.76,158.34l-1,4.02l-3.49-2.26h-1.74l-1,4.27l-12.21,27.36l3.24,23.84l3.99,2.01l0.75,6.53h8.22l7.97,6.02l15.69,1.51
	l1.74,8.03l2.49,1.76l3.49-3.51l2.74,1.25l2.49,11.54l4.23,2.76l3.49-6.53l10.71-7.78l6.97,3.26l5.98,0.5l0.25-3.76l12.45,0.25
	l2.49,2.76l0.5,6.27l-1.49,3.51l1.74,6.02h3.74l3.74-5.77l-1.49-2.76l-1.49-6.02l2.24-6.78l10.21-8.78l7.72-2.26l-1-7.28
	l10.71-11.55l10.71-1.76L272.8,199l10.46-6.02v-8.03l-1-0.5l-3.74,1.25l-0.5,4.92l-12.43,0.15l-9.74,6.47l-15.29,5l-2.44-2.99
	l6.94-10.5l-3.43-3.27l-2.33-4.44l-4.83-3.88l-5.25-0.44l-9.92-6.77L148.76,158.34L148.76,158.34z M133.83,128.41l-1.7,3.26
	l0.59,2.31l1.11,0.69l-0.26,0.94l-1.19,0.34l0.34,3.43l1.28,1.29l1.02-1.11l-1.28-3.34l0.76-2.66l1.87-2.49l-1.36-2.31
	L133.83,128.41L133.83,128.41z M139.45,147.95l-1.53,0.6l2.81,3.26l0.68,3.86l2.81,3l2.38-0.43v-3.94l-2.89-1.8L139.45,147.95
	L139.45,147.95z M194.88,291.52l5.93,4.34l5.98-7.43l-1.02-1.54l-2.04-0.07v-4.351l-1.53-0.93l-4.63,1.381l1.77,4.08L194.88,291.52
	L194.88,291.52z M207.55,288.78l9.24-0.35l2.74,3.26l-1.71-0.391l-3.29,0.141l-4.3,4.04l-1.84,4.09l-1.21-0.64l-0.01-4.48
	l-2.66-1.779L207.55,288.78L207.55,288.78z M201.65,296.27l4.7,2.34l-0.07-3.71l-2.41-1.47L201.65,296.27L201.65,296.27z
	 M217.74,292.11l2.19,0.439l0.07,4.49l-2.55,7.28l-6.87-0.68l-1.53-3.511l2.04-4.26l3.87-3.6L217.74,292.11L217.74,292.11z
	 M217.38,304.98l1.39,2.72l1.13,1.5l-1.52,4.51l-2.9-2.039l-4.74-4.34v-2.871L217.38,304.98L217.38,304.98z M220.59,309.61
	l-1.46,4.561l4.82,1.25l2.99,0.59l0.51-3.529l3.21-1.621l2.85,1.471l1.12,1.791l1.36-0.16l1.07-3.25l-3.56-1.471l-2.7-1.47
	l-2.7,1.84l-3.21,1.621l-3.28-1.319L220.59,309.61L220.59,309.61z M253.73,299.78l-2.06-0.21l-13.62,11.229l-1.44,3.951l-1.86,0.209
	l0.83,8.729l-4.75,11.649l5.16,4.371l6.61,0.42l4.54,6.66l6.6,0.209l-0.21,4.99H256l2.68-9.15l-2.48-3.118l0.62-5.82l5.16-0.42
	l-0.62-13.521l-11.56-3.739l-2.68-7.281L253.73,299.78L253.73,299.78z M250.46,305.92l0.44,2.59l3.25,1.029l0.74-4.77l3.43-3.55
	l3.43,4.021l7.89,2.149l6.68-1.399l4.55,5.608l3.43,2.149l-3.76,5.73l1.26,4.34l-2.15,2.66l-2.23,1.869l-4.83-2.43l-1.11,1.119
	v3.461l3.53,1.68l-2.6,2.811l-2.6,2.811l-3.43-0.28l-3.45-3.789l-0.73-14.261l-11.78-4.02l-2.14-6.271L250.46,305.92L250.46,305.92z
	 M285.05,314.129l7.22,6.541l-2.87,3.32l-0.23,1.969l3.77,3.891l-0.09,3.74l-6.56,2.5l-3.93-5.311l0.84-6.38l-1.68-4.75
	L285.05,314.129L285.05,314.129z M293.13,321.141l2.04,1.869l3.16-1.961l2.88,0.092l-0.37,1.119l-1.21,2.52l-0.188,6.271
	l-5.75,2.341l0.28-4.021l-3.71-3.461l0.19-1.779L293.13,321.141L293.13,321.141z M302.13,321.799l5.852,3.65l-3.062,6.079l-1.11,1.4
	l-3.25-1.869l0.092-6.552L302.13,321.799L302.13,321.799z M230.2,335.85l-4.73,2.939l-0.34,4.36l-0.95,1.431l2.98,2.858l-1.29,1.41
	l0.3,3.601l5.33,1.271l8.07-9.55l-0.02-3.33l-3.87-0.25L230.2,335.85L230.2,335.85z M225.03,349.52l-1.94,1.961l0.13,3.129
	l16.94,30.881l17.59,11.34l2.72-4.561l0.65-10.029l-1.42-6.25l-4.79-8.08l-2.85,0.91l-1.29,1.43l-5.69-6.52l1.42-7.689l6.6-4.301
	l-0.52-4.039l-6.72-0.262l-3.49-5.859l-1.94-0.649l0.13,3.521l-8.66,10.291l-6.47-1.562L225.03,349.52L225.03,349.52z
	 M258.71,372.79l8.23-3.59l2.72,0.26l1.81,7.561l12.54,4.17l2.07,6.391l5.17,0.65l2.2,5.471l-1.55,4.949l-8.41,0.648l-3.1,7.951
	l-6.6-0.131l-2.07-0.39l-3.81,3.699l-1.88-0.181l-6.47-14.99l1.79-2.68l0.63-10.6l-1.6-6.311L258.71,372.79L258.71,372.79z
	 M291.76,399.51l2.2,2.4l-0.26,5.08l6.34-0.392l4.79,6.131l-0.39,5.47l-3.102,4.689L295,423.151l-0.26-2.611l1.81-4.299l-6.21-3.91
	h-5.17l-3.88-4.17l2.82-8.062L291.76,399.51L291.76,399.51z M300.36,431.93l-2.052,2.189l0.852,11.781l6.438,1.867l8.19-8.209
	L300.36,431.93L300.36,431.93z M305.47,418.2l1.94,1.819l-7.37,10.95l-2.59,2.869l0.898,12.51l5.69,6.91l-4.78,8.34l-3.62,1.563
	h-4.14l1.16,6.51l-6.47,2.219l1.55,5.473l-3.88,12.379l4.79,3.91l-2.59,6.381l-4.4,6.91l2.33,4.818l-5.69,0.91l-4.66-5.729
	l-0.78-17.852l-7.24-30.318l2.19-10.602l-4.66-13.551l3.1-17.59l2.85-3.39l-0.7-2.57l3.66-3.34l8.16,0.56l4.56,4.871l5.27,0.09
	l5.4,3.299l-1.59,3.721l0.38,3.762l7.649-0.361L305.47,418.2L305.47,418.2z M285.04,514.1l-4.27,9.379l7.37,0.781l0.13-6.25
	L285.04,514.1L285.04,514.1z M288.92,518.79l0.26,5.729l4.4-0.389l3.75-2.479l-6.34-1.303L288.92,518.79L288.92,518.79z
	 M283.59,512.629l-3.21,3.551l-0.39,4.17l-6.21-3.52l-6.6-9.51l-1.94-3.393l2.72-3.52l-0.26-4.432l-3.1-1.299l-2.46-1.818l0.52-2.48
	l3.23-0.91l0.65-14.33l-5.04-2.871l-3.29-74.589l0.85-1.479l6.44,14.85l2.06,0.041l0.67,2.369l-2.74,3.319l-3.15,17.872l4.48,13.76
	l-2.07,10.42l7.3,30.639l0.77,17.92l5.23,6.053L283.59,512.629L283.59,512.629z M262.28,475.139l-1.29,1.951l0.65,3.391l1.29,0.131
	l0.65-4.303L262.28,475.139L262.28,475.139z M314.24,438.85l6.25-12.02l0.229-10.101l11.66-7.521h6.53l5.13-8.69l0.93-16.681
	l-2.1-4.459l12.359-11.28l0.471-12.449l-16.79-8.221l-20.28-6.341l-9.56-0.938l2.568-5.399l-0.698-8.221l-2.092-0.689l-3.09,6.141
	l-1.62,2.029l-4.159-1.84l-13.99,4.93l-4.66-5.869l0.75-6.131l-4.4,4.48l-4.86-2.621l-0.49,0.69l0.01,2.13l4.19,2.25l-6.29,6.631
	l-3.97-0.041l-4.02-4.09l-4.55,0.141l-0.56,4.859l2.61,3.17l-3.08,9.87l-3.6,0.279l-5.73,3.621l-1.4,7.108l4.97,5.32l0.91-1.029
	l3.49-0.94l2.98,5.021l8.53-3.66l3.31,0.19l2.28,8.069l12.17,3.859l2.1,6.439l5.18,0.621l2.47,6.148l-1.67,5.471l2.18,2.859
	l-0.32,4.26l5.84-0.549l5.35,6.76l-0.42,4.75l3.17,2.68l-7.6,11.512L314.24,438.85L314.24,438.85z M204.56,282.4l-0.05,3.649h0.84
	l2.86-5.34h-1.94L204.56,282.4L204.56,282.4z M817.97,72.93l1.761,6.08l3.521,1.01l3.521-5.57l-2.011-3.8l0.75-3.29h5.28l-1.26,2.53
	l0.5,9.12l-7.54,18.74l0.75,4.05l-0.25,6.84l14.069,20.51l2.761,0.76l0.25-16.71l2.76-2.53l-3.021-6.58l2.511-2.79l-5.53-7.34
	l-3.021,0.25l-1-12.15l7.79-2.03l0.5-3.55l4.021-1.01l2.26,2.03l2.76-11.14l4.771-8.1l3.77-2.03l3.271,0.25v-3.8l-5.28-1.01
	l-7.29-6.08l3.521-4.05l-3.021-6.84l2.511-2.53l3.021,4.05l7.54,2.79l8.29,0.76l1.01-3.54l-4.27-4.3l4.77-6.58l-10.81-3.8
	l-2.762,5.57l-3.52-4.56l-19.85-6.84l-18.852,3.29l-2.76,1.52v1.52l4.02,2.03l-0.5,4.81l-7.289-3.04l-16.08,6.33l-2.761-5.82h-11.06
	l-5.03,5.32l-17.84-4.05l-16.33,3.29l-2.01,5.06l2.51,0.76l-0.25,3.8l-15.83,1.77l1.01,5.06l-14.58-2.53l3.521-6.58l-14.83-0.76
	l1.26,6.84l-4.77,2.28l-4.021-3.8l-16.33,2.79l-6.28,5.82l-0.25,3.54l-4.02,0.25l-0.5-4.05l12.82-11.14v-7.6l-8.29-2.28
	l-10.812,3.54l-4.52-4.56h-2.01l-2.512,5.06l2.012,2.28l-14.33,7.85l-12.312,9.37l-7.54,10.38v4.3l8.04,3.29l-4.02,3.04l-8.54-3.04
	l-3.521,3.04l-5.28-6.08l-1.01,2.28l5.78,18.23l1.51,0.51l4.021-2.03l2.01,1.52v3.29l-3.771-1.52l-2.261,1.77l1.511,3.29
	l-1.261,8.61l-7.79,0.76l-0.5-2.79l4.521-2.79l1.01-7.6l-5.03-6.58l-1.76-11.39l-8.04-1.27l-0.75,4.05l1.51,2.03l-3.27,2.79
	l1.26,7.6l4.771,2.03l1.01,5.57l-4.78-3.04l-12.31-2.28l-1.512,4.05l-9.8,3.54l-1.51-2.53l-12.82,7.09l-0.25,4.81l-5.028,0.76
	l1.51-3.54v-3.54l-5.03-1.77l-3.27,1.27l2.76,5.32l2.01,3.54v2.79l-3.77-0.76l-0.75-0.76l-3.771,4.05l2.01,3.54l-8.54-0.25
	l2.762,3.55l-0.75,1.52h-4.521l-3.27-2.28l-0.75-6.33l-5.28-2.03v-2.53l11.06,2.28l6.03,0.51l2.51-3.8l-2.26-4.05l-16.08-6.33
	l-5.55,1.38l-1.9,1.63l0.591,3.75l2.359,0.41l-0.55,5.9l7.28,17.1l-5.262,8.34l-0.358,1.88l2.67,1.88l-2.41,1.59l-1.6,0.03l0.3,7.35
	l2.21,3.13l0.03,3.04l2.83,0.26l4.33,1.65l4.58,6.3l0.05,1.66l-1.49,2.55l3.42-0.19l3.33,0.96l4.5,6.37l11.08,1.01l-0.48,7.58
	l-3.818,3.27l0.79,1.28l-3.771,4.05l-1,3.8l2.26,3.29l7.29,2.53l3.021-1.77l19.35,7.34l0.75-2.03l-4.02-3.8v-4.81l-2.511-0.76
	l0.5-4.05l4.021-4.81l-7.21-5.4l0.5-7.51l7.71-5.07l9.05,0.51l1.51,2.79l9.302,0.51l6.79-3.8l-3.521-3.8l0.75-7.09l17.59-8.61
	l13.53,6.1l4.521-4.05l13.319,12.66l10.05-1.01l3.521,3.54l9.55,1.01l6.28-8.61l8.04,3.55l4.27,0.76l4.271-3.8l-3.771-2.53
	l3.271-5.06l9.3,3.04l2.01,4.05l4.021,0.25l2.51-1.77l6.79-0.25l0.75,1.77l7.79,0.51l5.279-5.57l10.811,1.27l3.27-1.27l1-6.08
	l-3.27-7.34l3.27-2.79h10.302l9.8,11.65l12.56,7.09h3.771l0.5-3.04l4.52-2.79l0.5,16.46l-4.02,0.25v4.05l2.26,2.79l-0.42,3.62
	l1.67,0.69l1.01-2.53l1.512,0.51l1,1.01l4.52-1.01l4.521-13.17l0.5-16.46l-5.779-13.17l-7.29-8.86l-3.521,0.51v2.79l-8.54-3.29
	l3.271-7.09l2.76-18.74l11.562-3.54l5.528-3.54h6.03L805.86,96l1.51,2.53l5.28-5.57l3.02,0.25l-0.5-3.29l-4.78-1.01l3.271-11.9
	L817.97,72.93L817.97,72.93z M670.4,170.07l-3.46,8.7l-4.771-0.25l-5.03,11.01l4.271,5.44l-8.8,12.15l-4.521-0.76l-3.02,3.8
	l0.75,2.28l3.52,0.25l1.76,4.05l3.521,0.76l10.81,13.93v7.09l5.28,3.29l5.78-1.01l7.29,4.3l8.8,2.53l4.27-0.51l4.78-0.51l10.05-6.58
	l3.271,0.51l1.25,2.97l2.77,0.83l3.771,5.57l-2.51,5.57l1.51,3.8l4.27,1.52l0.75,4.56l5.03,0.51l0.75-2.28l7.29-3.8l4.521,0.25
	l5.278,5.82l3.521-1.52l2.26,0.25l1.01,2.79l1.761,0.25l2.511-3.54l10.05-3.8l9.05-10.89l3.021-10.38l-0.25-6.84l-3.771-0.76
	l2.26-2.53l-0.5-4.05l-9.55-9.62v-4.81l2.76-3.54l2.762-1.27l0.25-2.79h-7.04l-1.261,3.8l-3.271-0.76l-4.021-4.3l2.511-6.58
	l3.52-3.8l3.271,0.25l-0.5,5.82l1.76,1.52l4.271-4.3l1.511-0.25l-0.5-3.29l4.02-4.81l3.021,0.25l1.76-5.57l2.061-1.09l0.21-3.47
	l-2-2.1l-0.171-5.48l3.852-0.25l-0.25-14.13l-2.7,1.62l-1.01,3.62l-4.51-0.01l-13.07-7.35l-9.44-11.38l-9.58-0.1l-2.438,2.12
	l3.1,7.1l-1.08,6.66l-3.858,1.6l-2.171-0.17l-0.159,6.59l2.26,0.51l4.021-1.77l5.279,2.53v2.53l-3.77,0.25l-3.021,6.58l-2.76,0.25
	l-9.8,12.91l-10.3,4.56l-7.04,0.51l-4.771-3.29l-6.79,3.55l-7.29-2.28l-1.76-4.81l-12.31-0.76l-6.53-10.63h-2.761l-2.221-4.93
	L670.4,170.07z M673.8,170.17l5.82-7.72l6.99,3.23l4.75,1.27l5.818-5.34l-3.948-2.91l2.6-3.67l7.76,2.74l2.69,4.41l4.858,0.13
	l2.54-1.89l5.23-0.21l1.14,1.94l8.69,0.44l5.5-5.61l7.608,0.8l-0.438,7.64l3.33,0.76l4.09-1.86l4.33,2.14l-0.102,1.08l-3.14,0.09
	l-3.27,6.86l-2.54,0.25l-9.881,12.91l-10.091,4.45l-6.31,0.49l-5.24-3.38l-6.7,3.58l-6.6-2.05l-1.87-4.79l-12.5-0.88l-6.4-10.85
	l-3.108-0.2L673.8,170.17L673.8,170.17z M778.28,194.27l1.84,0.77l0.56,6.44l3.65,0.21l3.44-4.03l-1.19-1.06l0.14-4.32l3.16-3.82
	l-1.608-2.9l1.05-1.2l0.58-3l-1.83-0.83l-1.562,0.79l-1.93,5.86l-3.12-0.27l-3.61,4.26L778.28,194.27L778.28,194.27z M788.34,198.2
	l6.18,5.04l1.052,4.88l-0.21,2.62l-3.021,3.4l-2.6,0.14l-2.95-6.37l-1.12-3.04l1.19-0.92l-0.28-1.27l-1.47-0.66L788.34,198.2
	L788.34,198.2z M576.69,188.62l4.1-1.75l4.58-0.16l0.32,7h-2.682l-2.05,3.34l2.68,4.45l3.95,2.23l0.36,2.55l1.45-0.48l1.34-1.59
	l2.21,0.48l1.109,2.23h2.841v-2.86l-1.74-5.09l-0.79-4.13l5.05-2.23l6.79,1.11l4.26,4.29l9.63-0.95l5.37,7.63l6.312,0.32l1.739-2.86
	l2.211-0.48l0.318-3.18l3.312-0.16l1.738,2.07l1.74-4.13l14.99,2.07l2.52-3.34l-4.26-5.25l5.681-12.4l4.579,0.32l3.16-7.63
	l-6.31-0.64l-3.63-3.5l-10,1.16l-12.88-12.45l-4.54,4.03l-13.771-6.25l-16.89,8.27l-0.471,5.88l3.949,4.61l-7.699,4.35l-9.989-0.22
	l-2.091-3.07l-7.829-0.43l-7.421,4.77l-0.159,6.52L576.69,188.62L576.69,188.62z M593.85,207.59l-0.619,2.63h-4.149v3.56l4.46,2.94
	l-1.38,4.03v1.86l1.85,0.31l2.46-3.25l5.54-1.24l11.84,4.49l0.15,3.25l6.61,0.62l7.38-7.75l-0.92-2.48l-4.92-1.08l-13.842-8.99
	l-0.618-3.25h-5.23l-2.31,4.34h-2.312L593.85,207.59L593.85,207.59z M628.92,219.06l3.08,0.16v-5.27l-2.92-1.7l4.92-6.2h2l2,2.33
	l5.23-2.01l-7.23-2.48l-0.28-1.5l-1.72,0.42l-1.69,2.94l-7.29-0.24l-5.35-7.57l-9.4,0.93l-4.479-4.44l-6.2-1.05l-4.5,1.83l2.61,8.68
	l0.03,2.92l1.898,0.04l2.33-4.44l6.2,0.08l0.92,3.41l13.29,8.82l5.14,1.18L628.92,219.06L628.92,219.06z M630.19,211.84l4.108-5.1
	h1.55l0.54,1.14l-1.898,1.38v1.14l1.25,0.9l6.01,0.36l1.96-0.84l0.89,0.18l0.602,1.92l3.568,0.36l1.79,3.78l-0.54,1.14l-0.71,0.06
	l-0.71-1.44l-1.55-0.12l-2.68,0.36l-0.181,2.52l-2.681-0.18l0.12-3.18l-1.96-1.92l-2.979,2.46l0.061,1.62l-2.62,0.9h-1.55l0.12-5.58
	L630.19,211.84L630.19,211.84z M636.81,199.21l-0.31,2.53l0.25,1.56l8.7,2.92l-7.642,3.08l-0.868-0.72l-1.65,1.06l0.08,0.58
	l0.88,0.4l5.36,0.14l2.72-0.82l3.49-4.4l4.369,0.76l5.271-7.3l-14.1-1.92l-1.95,4.73l-2.46-2.64L636.81,199.21L636.81,199.21z
	 M614.12,227.05l1.59,12.46l3.96,0.87l0.37,2.24l-2.84,2.37l5.29,4.27l10.278-3.7l0.82-4.38l6.47-4.04l2.48-9.36l1.85-1.99
	l-1.92-3.34l6.261-3.87l-0.801-1.12l-2.89,0.18l-0.26,2.66l-3.881-0.04l-0.069-3.55l-1.25-1.49l-2.101,1.91l0.061,1.75l-3.17,1.2
	l-5.852-0.37l-7.6,7.96L614.12,227.05L614.12,227.05z M623.13,249.84l2.602,3.86l-0.25,1.99l-3.462,1.37l-0.25,3.24h3.962
	l1.358-1.12h7.54l6.8,5.98l0.87-2.87h5.07l0.12-3.61l-5.19-4.98l1.11-2.74l5.318-0.37l7.172-14.95l-3.961-3.11l-1.479-5.23
	l9.64-0.87l-5.688-8.1l-3.03-0.82l-1.24,1.5l-0.93,0.07l-5.69,3.61l1.86,3.12l-2.1,2.24l-2.602,9.59l-6.43,4.11l-0.87,4.49
	L623.13,249.84L623.13,249.84z M670.98,313.01l4.578-2.24l2.722-9.839l-0.12-12.08l15.58-16.819v-3.99l3.21-1.25l-0.12-4.61
	l-3.46-6.73l1.979-3.61l4.33,3.99l5.562,0.25v2.24l-1.73,1.87l0.37,1l2.97,0.12l0.62,3.36h0.87l2.23-3.99l1.108-10.46l3.71-2.62
	l0.12-3.61l-1.479-2.87L711.68,241l-9.198,6.08l0.578,3.91l-6.46-0.02l-2.278-2.79l-1.24,0.16l0.42,3.88l-13.97-1l-8.66-3.86
	l-0.46-4.75l-5.771-3.58l-0.068-7.37l-3.96-4.53L651.51,228l0.99,3.96l4.46,3.61l-7.71,15.78l-5.16,0.39l-0.85,1.9l5.08,4.7
	l-0.25,4.75l-5.19-0.08l-0.56,2.36l4.31-0.19l0.12,1.87l-3.09,1.621l1.979,3.74l3.83,1.25l2.352-1.74l1.108-3.11l1.36-0.62
	l1.61,1.62l-0.49,3.989l-1.11,1.871l0.25,3.24L670.98,313.01L670.98,313.01z M671.19,242.56l0.46,4.27l8.08,3.66l12.948,0.96
	l-0.488-3.13l-8.65-2.38l-7.34-4.37L671.19,242.56L671.19,242.56z M695.4,248.08l1.55,2.12l5.24,0.04l-0.53-2.9L695.4,248.08
	L695.4,248.08z M695.57,253.11l-1.312,2.37l3.4,6.46l0.1,5.04l0.62,1.351l3.99,0.069l2.26-2.17l1.641,0.99l0.329,3.069l1.312-0.819
	l0.08-3.92l-1.102-0.13l-0.688-3.33l-2.78-0.1l-0.689-1.85l1.699-2.27l0.03-1.12h-4.939L695.57,253.11L695.57,253.11z
	 M729.44,303.65l-2.771-4.44l2.01-2.819l-1.898-3.49l-1.79-0.34l-0.34-5.86l-2.682-5.189l-0.779,1.24l-1.789,3.039l-2.24,0.34
	l-1.12-1.469l-0.56-3.951l-1.682-3.16l-6.84-6.449l1.68-1.109l0.312-4.671l2.5-4.2l1.08-10.45l3.62-2.47l0.118-3.81l2.17,0.72
	l3.422,4.95l-2.54,5.44l1.71,4.27l4.229,1.66l0.771,4.65l5.68,0.88l-1.57,2.71l-7.159,2.819l-0.779,4.62l5.26,6.76l0.22,3.61
	l-1.229,1.239l0.108,1.131l3.92,5.75l0.11,5.97L729.44,303.65L729.44,303.65z M730.03,270.47l3.239,4.17v5.069l1.119,0.561
	l5.15-2.48l1.01,0.34l6.15,7.101l-0.22,4.851l-2.012-0.34l-1.79-1.131l-1.34,0.11l-2.35,3.94l0.45,2.139l1.898,1.011l-0.108,2.37
	l-1.341,0.68l-4.591-3.16v-2.82l-1.898-0.109l-0.78,1.24l-0.4,12.619l2.972,5.42l5.26,5.07l-0.22,1.471l-2.802-0.109l-2.568-3.83
	h-2.69l-3.358-2.711l-1.012-2.818l1.45-2.371l0.5-2.14l1.58-2.8l-0.07-6.439l-3.858-5.58l-0.16-0.681l1.25-1.26l-0.29-4.431
	l-5.14-6.51l0.6-3.75L730.03,270.47L730.03,270.47z M732.71,315.45l2.01,4.51l0.45,5.86l2.69,4.171l6.488,3.938l2.462,0.229
	l-0.45-4.061l-2.13-5.18l-3.12-6.631l-0.262,1.16l-3.76-0.17l-2.7-3.88L732.71,315.45L732.71,315.45z M740.48,299.47l4.09,4.37
	l7.608-5.641l0.67-8.9l-3.93,2.711l-2.04-1.141l-2.77-0.369l-1.552-1.09l-0.75,0.039l-2.028,3.33l0.33,1.54l2.06,1.149l-0.25,3.131
	L740.48,299.47L740.48,299.47z M735.47,262.93l-2.42,1.23l-2.01,5.86l3.36,4.279l-0.562,4.73l0.562,0.23l5.59-2.711l7.5,8.381
	l-0.182,5.279l1.631,0.881l4.029-3.271l-0.33-2.59l-11.63-11.05l0.11-1.689l1.45-1.011l-1.012-2.819l-4.81-0.791L735.47,262.93
	L735.47,262.93z M745.06,304.45l1.19,1.87l0.22,2.14l3.13,0.34l3.802-5.069l3.58-1.01l1.898-5.181l-0.89-8.34l-3.69-5.07
	l-3.89-3.109l-4.95-8.5l3.55-5.94l-5.08-5.83l-4.068-0.18l-3.66,1.97l1.09,4.71l4.88,0.859l1.312,3.631l-1.722,1.119l0.11,0.9
	l11.45,11.199l0.448,3.291l-0.688,10.399L745.06,304.45L745.06,304.45z M555.46,204.16l3.271,4.27l4.079,1.88l2.511-0.01l4.31-1.17
	l1.08-1.69l-12.75-4.77L555.46,204.16L555.46,204.16z M569.72,209.89l4.8,6.26l-1.408,1.65l-3.4-0.59l-4.22-3.78l0.229-2.48
	L569.72,209.89L569.72,209.89z M571.41,207.72l-1.01,1.72l4.71,6.18l1.64-0.53l2.7,2.83l1.17-4.96l2.93,0.47l-0.12-1.42l-4.818-4.22
	l-0.92,2.48L571.41,207.72L571.41,207.72z M569.65,217.95l-1.222,1.27l0.12,2.01l1.521,2.13l5.39,5.9l-0.82,2.36H573.7l-0.47,2.36
	l3.05,3.9l2.81,0.24l5.63,7.79l3.16,0.24l2.46,1.77l0.12,3.54l9.73,5.67h3.63l2.229-1.89l2.812-0.12l1.64,3.78l10.51,1.46
	l0.312-3.86l3.479-1.26l0.16-1.38l-2.771-3.78l-6.171-4.96l3.24-2.95l-0.229-1.3l-4.062-0.63l-1.72-13.7l-0.2-3.15l-11.01-4.21
	l-4.88,1.1l-2.73,3.35l-2.42-0.16l-0.699,0.59l-5.391-0.35l-6.8-4.96l-2.53-2.77l-1.16,0.28l-2.09,2.39L569.65,217.95L569.65,217.95
	z M558.7,209.19l-2.23,2.36l-8.2-0.24l-4.92-2.95l-4.8-0.12l-5.51,3.9l-5.16,0.24l-0.47,2.95h-5.86l-2.34,2.13v1.18l1.41,1.18v1.3
	l-0.59,1.54l0.59,1.3l1.88-0.94l1.88,2.01l-0.47,1.42l-0.7,0.95l1.05,1.18l5.16,1.06l3.63-1.54v-2.24l1.761,0.35l4.221,2.48
	l4.568-0.71l1.99-1.89l1.29,0.47v2.13h1.76l1.521-2.95l13.358-1.42l5.83-0.71l-1.539-2.02l-0.029-2.73l1.17-1.4l-4.26-3.42
	l0.229-2.95h-2.34L558.7,209.19L558.7,209.19z M571.99,289.23l1.438,4.28v4.18l3.46,3.141l24.381-9.931l0.229-2.729l-3.91-7.021
	l-9.81,3.13l-5.63,5.54l-6.53-3.86L571.99,289.23L571.99,289.23z M598.38,280.84l7.39-4.26l1.312-6.25l-1.62-0.931l0.67-6.7
	l1.41-0.82l1.51,2.37l8.99,4.7v2.61l-10.89,16.03l-5.012,0.17L598.38,280.84L598.38,280.84z M594.01,264.94l0.87,3.48l9.86,0.869
	l0.688-7.14l1.9-1.04l0.52-2.61l-3.108,0.87l-3.46,5.23L594.01,264.94L594.01,264.94z M592.63,259.02l-0.52,4.01l1.54,1.17
	l1.398-0.13l0.521-5.05l-1.21-0.87L592.63,259.02L592.63,259.02z M583.29,247.17l-2.25-1.22l-1.56,1.57l0.17,3.14l3.63,1.39
	L583.29,247.17L583.29,247.17z M584,253.24l7.01,9.77l2.26,1.8l1.012,4.38l10.79,0.85l1.22,0.641l-1.21,5.4l-7.09,4.18l-10.37,3.14
	l-5.53,5.399l-6.57-3.829l-3.979,3.479L566,279.4l-3.8-1.739l-1.38-2.091v-4.53l-13.83-16.72l-0.521-2.96h3.98l4.84-4.18l0.17-2.09
	l-1.38-1.39l2.77-2.26l5.882,0.35l10.028,8.36l5.92-0.27l0.38,1.46L584,253.24L584,253.24z M546.67,229.13l-0.35,2.54l2.818,1.18
	l-0.12,7.04l2.82-0.06l2.82-2.13l1.06-0.18l6.4-5.09l1.29-7.39l-12.79,1.3l-1.35,2.96L546.67,229.13L546.67,229.13z M564.31,225.03
	l-1.56,7.71l-6.46,5.38l0.41,2.54l6.31,0.43l10.05,8.18l5.62-0.16l0.15-1.89l2.06-2.21l2.88,1.63l0.382-0.36l-5.57-7.41l-2.642-0.16
	l-3.51-4.51l0.7-3.32l1.07-0.14l0.37-1.47l-4.78-5.03L564.31,225.03L564.31,225.03z M548.9,240.78l-2.46,8.58l-0.11,1.31h3.87
	l4.33-3.82l0.108-1.45l-1.77-1.81l3.17-2.63l-0.46-2.44l-0.87,0.2l-2.64,1.89L548.9,240.78L548.9,240.78z M546.2,232.44l0.06,1.95
	l-0.818,2.96l2.818,0.24l0.182-4.2L546.2,232.44L546.2,232.44z M545.32,238.06l-1.58,5.03l2.05,6.03l2.35-8.81v-1.89L545.32,238.06
	L545.32,238.06z M543.21,229.84l1.23,0.89l-3.812,3.61l-1.82-0.06l-1.35-0.95l0.18-1.77l2.762-0.18L543.21,229.84L543.21,229.84z
	 M515.46,102.14l2.021-1.48L517.3,99l-1.28-0.74l0.182-2.03h1.1v-1.11l-4.77-1.29l-7.15,0.74l-0.729,3.14L503,97.16l-1.1-1.85
	l-3.49,0.18L498.04,99l-1.65,0.74l-0.92-1.85l-7.34,5.91l1.47,1.66l-2.75,1.29l-6.238,12.38l-2.2,1.48l0.18,1.11l2.2,1.11l-0.55,2.4
	l-3.67-0.19l-1.102-1.29l-2.38,2.77l-1.47,1.11l-0.37,2.59l-1.28,0.74l-3.3,0.74l-1.65,5.18l1.102,8.5l1.28,3.88l1.47,1.48l3.3-0.18
	l4.771-4.62l1.829-3.14l0.551,4.62l3.12-5.54l0.18-15.53l2.54-1.6l0.76-8.57l7.7-11.09l3.67-1.29l1.65-2.03l5.5,1.29l2.75,1.66
	l0.92-4.62l4.59-2.77L515.46,102.14L515.46,102.14z M446.12,149.08l-1.83,2.77l0.729,1.11h4.222v1.85l-1.102,1.48l0.73,3.88
	l2.38,4.62l1.83,4.25l2.93,1.11l1.28,2.22l-0.18,2.03l-1.83,1.11l-0.182,0.92l1.28,0.74l-1.1,1.48l-2.57,1.11l-4.95-0.55l-7.71,3.51
	l-2.569-1.29l7.341-4.25l-0.92-0.55l-3.852-0.37l2.38-3.51l0.37-2.96l3.12-0.37l-0.55-5.73l-3.67-0.18l-1.102-1.29l0.182-4.25
	l-2.2,0.18l2.2-7.39l4.04-2.96L446.12,149.08L446.12,149.08z M438.42,161.47l-3.3,0.37l-0.18,2.96l2.198,1.48l2.382-0.55l0.92-1.66
	L438.42,161.47L438.42,161.47z M439.51,166.55l-0.91,6l-8.068,2.96h-2.57l-1.83-1.29v-1.11l4.04-2.59l-1.1-2.22l0.18-3.14l3.49,0.18
	l1.6-3.76l-0.21,3.34l2.71,2.15L439.51,166.55L439.51,166.55z M497.72,104.58l1.96,1.81h3.67l2.021,3.88l0.55,6.65l-4.95,3.51v3.51
	l-3.488,4.81l-2.021,0.18l-2.75,4.62l0.18,4.44l4.771,3.51l-0.37,2.03l-1.83,2.77l-2.75,2.4l0.18,7.95l-4.22,1.48l-1.47,3.14h-2.021
	l-1.1-5.54l-4.59-7.04l3.77-6.31l0.26-15.59l2.602-1.43l0.63-8.92l7.41-10.61L497.72,104.58L497.72,104.58z M506.79,116.94
	l2.07,0.91l1.278,2.4l-1.278,1.66l-6.42,7.02l-1.102,3.7l1.47,5.36l4.95,3.7l6.602-3.14l5.318-0.74l4.95-7.95l-3.67-8.69l-3.49-8.32
	l0.55-5.36l-2.198-0.37l-0.57-3.91l-2.96-4.83l-3.28,2.27l-1.29,5.27l-3.479-2.09l-4.84-1.18l-1.08,1.26l1.858,1.68l3.392-0.06
	l2.729,4.41L506.79,116.94L506.79,116.94z M518.07,151.37l-6.852-1.11l0.15,3.83l6.35,3.88l2.602-0.76l-0.15-2.92L518.07,151.37
	L518.07,151.37z M506.76,147.64l-1.55-0.05l-0.9,0.91l0.65,0.96l1.55,0.1l0.8-1.16L506.76,147.64L506.76,147.64z M506.61,151.72
	l-1.5-0.15l-2.7,3.23v1.51l0.898,0.35l1.75,0.05l2.9-2.37l0.4-0.81L506.61,151.72L506.61,151.72z M510.81,154.7l-2.148-0.05
	l-2.95,2.82h-2.5l0.15,3.53l-1.5,2.77l5.398,0.05l1.55-0.2l1.552,1.87l3.55-0.15l3.398-4.33l-0.198-2.57L510.81,154.7L510.81,154.7z
	 M510.66,166.29l1.5,2.47l-0.602,1.97l0.102,1.56l0.55,1.87l3.1-1.76l3.852,0.1l2.7,1.11h6.85l2-4.79l1.2-1.81v-1.21l-4.3-6.05
	l-3.802-1.51l-3.1-0.35l-2.7,0.86l0.102,2.72l-3.75,4.74L510.66,166.29L510.66,166.29z M511.46,174.76l0.85,1.56l0.2,1.66l-0.7,1.61
	l-1.6,3.08l-1.35,0.61l-1.75-0.76l-1.052,0.05l-2.55,0.96l-2.898-0.86l-4.7-3.33l-4.602-2.47l-1.85-2.82l-0.35-6.65l3.6-3.13
	l4.7-1.56l1.75-0.2l-0.7,1.41l0.45,0.55l7.91,0.15l1.698-0.05l2.802,4.29l-0.7,1.76l0.3,2.07L511.46,174.76L511.46,174.76z
	 M448.36,205h-12.74l-2.57-1.16l-1.24,0.09l-1.5,3.12l0.53,3.21l4.87,0.45l0.62,2.05l-2.12,11.95l0.09,2.14l3.45,1.87l3.98,0.27
	l7.96-1.96l3.89-4.9l0.09-4.99l6.9-6.24l0.35-2.76l-6.28-0.09L448.36,205L448.36,205z M430.93,211.24l-0.62,8.65l-1.77,1.6
	l0.18,0.98l1.24,2.05l-0.8,2.5l1.33,0.45l3.1-0.36l-0.18-2.5l2.03-11.59l-0.44-1.6L430.93,211.24L430.93,211.24z M461.1,217.21
	l-1.59,0.54l0.352,1.43h2.3l0.97-1.07L461.1,217.21L461.1,217.21z M477.56,213.38l-2.648,1.34l0.35,5.17l2.12,0.36l1.59-1.52v-4.9
	L477.56,213.38L477.56,213.38z M477.83,206.96l-1.95,1.96l-0.18,1.78l1.59,0.98l0.62-0.09l0.35-2.59L477.83,206.96L477.83,206.96z
	 M460.4,178.7l-2.21,0.54l-4.422,4.81l-1.328,0.09l-1.771-1.25l-1.15,0.27l-0.88,2.76l-6.46,0.18l0.182,1.43l4.42,2.94l5.13,4.1
	l-0.09,4.9l-2.74,4.81l5.93,2.85l6.021,0.18l1.858-2.14l3.802,0.09l1.06,0.98l3.8-0.27l1.95-2.5l-2.479-2.94l-0.181-1.87l0.53-2.05
	l-1.24-1.78l-2.12,0.62l-0.27-1.6l4.688-5.17v-3.12l-3.1-1.78l-1.59-0.27L460.4,178.7L460.4,178.7z M470.09,168.27l-4.53,2.23
	l0.96,0.87l0.102,2.23l-0.96-0.19l-1.062-1.65l-2.528,4.01l3.89,0.81l1.45,1.53l0.77,0.02l0.512-3.46l2.448-1.03L470.09,168.27
	L470.09,168.27z M461.61,176.52l-0.642,1.6l6.88,4.54l1.98,0.47l0.07-2.15l-1.73-1.94h-1.06l-1.45-1.65L461.61,176.52L461.61,176.52
	z M471.14,167.88l3.57-0.58v-2.52l2.99-0.49l1.64,1.65l1.73,0.19l2.7-1.17l2.408,0.68l2.12,1.84l0.29,6.89l2.12,2.82l-2.79,0.39
	l-4.63,2.91l0.39,0.97l4.142,3.88l-0.29,1.94l-3.852,1.94l-3.568,0.1l-0.87,1.84h-1.83l-0.87-1.94l-3.18-0.78l-0.102-3.2
	l-2.699-1.84l0.289-2.33l-1.829-2.52l0.479-3.3l2.5-1.17L471.14,167.88L471.14,167.88z M476.77,151.5l-4.148,4.59l-0.15,2.99
	l1.892,4.93l2.96-0.56l-0.37-4.03l2.04-2.28l-0.04-1.79l-1.44-3.73L476.77,151.5L476.77,151.5z M481.44,159.64l-0.932-0.04
	l-1.22,1.12l0.15,1.75l2.89,0.08l0.149-1.98L481.44,159.64L481.44,159.64z M498.49,150.17l-2.11,1.67l1.062,2.45l1.868-1.82
	L498.49,150.17L498.49,150.17z M472.91,189.38l-4.36,4.64l0.09,0.47l1.79-0.56l1.61,2.24l2.72-0.96l1.88,1.46l0.771-0.44l2.32-3.64
	l-0.592-0.56l-2.29-0.06l-1.108-2.27L472.91,189.38L472.91,189.38z M488.43,184.87h2.972h1.46l2.37,1.69l4.39-3.65l-4.26-3.04
	l-4.222-2.04l-2.89,0.52l-3.92,2.52L488.43,184.87L488.43,184.87z M495.84,187.13l0.69,0.61l0.09,1.04l7.63-0.17l5.64-2.43
	l-0.09-2.47l-1.08,0.48l-1.55-0.83l-0.95-0.04l-2.5,1l-3.398-0.82L495.84,187.13L495.84,187.13z M480.63,190.12l-0.648,1.35
	l0.56,0.96l2.33-0.48h1.979l2.15,1.82l4.57-0.83l3.358-2l0.86-1.35l-0.13-1.74l-3.021-2.26l-4.05,0.04l-0.34,2.3l-4.26,2.08
	L480.63,190.12L480.63,190.12z M496.74,189.6l-1.16,1.82l0.09,2.78l1.85,0.95l5.69,0.17l7.93-6.68l0.04-1.48l-0.858-0.43l-5.73,2.6
	L496.74,189.6L496.74,189.6z M494.8,191.99l-2.54,1.52l-4.74,1.04l0.95,2.74l3.32,0.04l3.06-2.56L494.8,191.99L494.8,191.99z
	 M495.62,195.16l-3.53,2.91h-3.58l-0.43,2.52l1.64,0.43l0.82-1.22l1.29,1.13l1.03,3.6l7.068,3.3l0.7-0.8l-7.17-7.4l0.73-1.35
	l6.81-0.26l0.69-2.17l-4.44,0.13L495.62,195.16L495.62,195.16z M494.8,198.94l-0.37,0.61l6.71,6.92l2.46-3.62l-0.09-1.43
	l-2.148-2.61L494.8,198.94L494.8,198.94z M472.27,196.98l-0.618,1.57l0.17,1.71l2.39,2.79l3.76-0.13l8.301,9.64l5.181,1.5l3.06,2.89
	l0.73,6.59l1.64-0.96l1.42-3.59l-0.35-2.58l2.43-0.22l0.352-1.46l-6.852-3.28l-6.5-6.39l-2.59-3.82l-0.63-3.63l3.31-0.79l-0.85-2.39
	l-2.03-1.71l-1.75-0.08l-2.438,0.67l-2.302,3.22l-1.39,0.92l-2.149-1.32L472.27,196.98L472.27,196.98z M492.44,223.02l-1.45-0.78
	l-4.95,0.78l0.17,1.34l4.45,2.24l0.67,0.73l1.17,0.17L492.44,223.02L492.44,223.02z M492.61,230.47l-1.67,0.34l0.06,1.85l1.5,0.5
	l0.67-0.56L492.61,230.47L492.61,230.47z M515.57,173.15l-2.9,1.63l0.72,3.08l-2.68,5.65l0.02,2.49l1.262,0.8l8.08,0.4l2.26-1.87
	l2.42,0.81l3.47,4.63l-2.54,4.56l3.021,0.88l3.95-4.55l2.26,0.41l2.1,1.46l-1.85,2.44l2.5,3.9h2.66l1.369-2.6l2.819-0.57l0.08-2.11
	l-5.24-0.81l0.16-2.27h5.08l5.48-4.39l2.42-2.11l0.398-6.66l-10.8-0.97l-4.43-6.25l-3.062-1.05l-3.71,0.16l-1.67,4.13l-7.6,0.1
	l-2.47-1.14L515.57,173.15L515.57,173.15z M520.75,187.71l3.1,4.77l-0.26,2.7l1.11,0.05l2.63-4.45l-3.16-3.92l-1.79-0.74
	L520.75,187.71L520.75,187.71z M512.18,187.6l-0.26,1.48l-5.79,4.82l4.84,7.1l3.102,2.17h5.58l1.84-1.54l2.47-0.32l1.84,1.11
	l3.26-3.71l-0.63-1.86l-3.31-0.85l-2.26-0.11l0.108-3.18l-3-4.72L512.18,187.6L512.18,187.6z M504.902,207.248l-0.045-0.936
	l-1.32-1.854l-2.137,3.021l0.42,1.27l1.739,0.32L504.902,207.248z M505.551,194.539l-2.051,1.541h-1l-0.68,2.119l2.42,2.811
	l0.16,2.23l-0.343,0.482l1.638,2.299l0.057,1.219l1.178,1.141l3.84-1.17l-0.319-5.461L505.551,194.539z M511.44,202.39l0.158,4.98
	l1.682,3.5l6.31,0.11l2.84-2.01l2.79-1.11l-0.68-3.18l0.63-1.7l-1.42-0.74l-1.95,0.16l-1.53,1.54l-6.42,0.05L511.44,202.39
	L511.44,202.39z M504.02,209.76v4.61l1.32,2.49l0.95-0.11l1.63-2.97l-0.95-1.33l-0.37-3.29l-1.26-1.17L504.02,209.76L504.02,209.76z
	 M510.92,208.01l-3.37,1.11l0.16,2.86l0.79,1.01l4-1.86L510.92,208.01L510.92,208.01z M506.71,217.6l-0.11,1.33l4.632,2.33
	l2.21,0.85l-1.16,1.22l-2.58,0.26l-0.37,1.17l0.89,2.01l2.892,1.54l1.26,0.11l0.16-3.45l1.89-2.28l-5.16-6.1l0.682-2.07l1.21-0.05
	l1.84,1.48l1.16-0.58l0.369-2.07l5.421,0.05l0.21-3.18l-2.261,1.59l-6.631-0.16l-4.31,2.23L506.71,217.6L506.71,217.6z
	 M523.02,209.7l-0.158,3.55l3.1-0.95l1.42-0.95l-0.42-1.54l-1.47-1.17L523.02,209.7L523.02,209.7z M516.76,230.59l1.63,0.05
	l0.682,1.01h2.37l1.578-0.58l0.53,0.64l-1.05,1.38l-4.63,0.16l-0.84-1.11l-0.892-0.53L516.76,230.59L516.76,230.59z"/>
</svg>
